<svg xmlns="http://www.w3.org/2000/svg" xmlns:xlink="http://www.w3.org/1999/xlink" width="400" height="200" viewBox="0 0 400 200"><defs><clipPath id="a"><rect x="44.77" y="72.22" width="310.46" height="55.56" fill="none"/></clipPath></defs><rect width="400" height="200" fill="#4bd4a7"/><g clip-path="url(#a)"><path d="M211.4,102.45v-6.3h3.17v-4H211.4V88.33h-4.83v3.82h-1.93v4h1.93v6.24c0,4.07,2.29,5.45,5.57,5.45h2.46v-4.07h-1.73c-1.07,0-1.47-.4-1.47-1.32m-31.94,5.39h4.83V87h-4.83ZM195,91.93a7.78,7.78,0,0,0-8.2,7.34c0,.24,0,.49,0,.73a7.71,7.71,0,0,0,7.34,8.07c.27,0,.53,0,.8,0a7.81,7.81,0,0,0,8.25-7.34c0-.25,0-.49,0-.73a7.78,7.78,0,0,0-7.44-8.08c-.25,0-.51,0-.76,0m-.06,12c-1.75,0-3.22-1.27-3.22-3.91s1.53-3.91,3.28-3.91,3.28,1.24,3.28,3.91-1.61,3.91-3.34,3.91m155.41-9.59a5.78,5.78,0,0,0-4.86-2.39c-3.87,0-7,3.09-7,8s3.09,8.1,7,8.1a5.44,5.44,0,0,0,4.86-2.48v2.25h4.84V87h-4.84Zm-3.45,9.56a3.55,3.55,0,0,1-3.46-3.64,2.44,2.44,0,0,1,0-.27,3.48,3.48,0,0,1,6.91-.77,3.06,3.06,0,0,1,0,.8,3.5,3.5,0,0,1-3.12,3.86l-.33,0M118.16,94.77V92.15h-4.83v15.69h4.83v-7.28c0-2.7,1.33-3.48,3.62-3.48h1.33V92a5.89,5.89,0,0,0-5,2.78m32,1.27a2.48,2.48,0,0,1,2.51,1.79h5.15a7.23,7.23,0,0,0-7.58-5.9,7.54,7.54,0,0,0-7.92,7.17,6.76,6.76,0,0,0,0,.9,7.55,7.55,0,0,0,7,8.06c.31,0,.62,0,.93,0a7.31,7.31,0,0,0,7.58-5.91h-5.15a2.43,2.43,0,0,1-2.51,1.8c-1.73,0-2.92-1.35-2.92-4s1.19-4,2.92-4M132.69,102,129,92.15h-5.4l6.42,15.16-3.62,8h5.2l9.9-23.13h-5.23ZM170.1,92a5.84,5.84,0,0,0-4.86,2.27V87h-4.83v20.8h4.83V99.32a3,3,0,0,1,6-.55,2.53,2.53,0,0,1,0,.55v8.52h4.81V98.68c0-4.22-2.4-6.69-6-6.69m132.63-.06a7.77,7.77,0,0,0-8.19,7.34,5.93,5.93,0,0,0,0,.73,7.72,7.72,0,0,0,7.35,8.07c.26,0,.53,0,.79,0a7.81,7.81,0,0,0,8.25-7.34,6,6,0,0,0,0-.73,7.77,7.77,0,0,0-7.44-8.08C303.24,91.91,303,91.92,302.73,91.93Zm-.06,12c-1.75,0-3.22-1.27-3.22-3.91s1.53-3.91,3.28-3.91S306,97.33,306,100s-1.61,3.91-3.34,3.91m17.92-.56-3.42-11.19H312l5.6,15.69h6l5.6-15.69H324Zm10.61,4.5H336V92.16H331.2Zm2.43-22.53a2.61,2.61,0,1,0,2.85,2.62,2.65,2.65,0,0,0-2.71-2.62h-.14M238.9,96.71c0-.76.62-1.21,1.75-1.21A2.08,2.08,0,0,1,243,97.27h4.47c-.31-3.09-2.57-5.34-6.65-5.34s-6.41,2.19-6.41,4.86c0,5.77,8.59,3.94,8.59,6.47,0,.7-.65,1.27-1.89,1.27a2.21,2.21,0,0,1-2.43-1.83h-4.78c.22,3,3,5.37,7.26,5.37,4,0,6.39-2,6.39-4.78-.08-5.85-8.62-4.08-8.62-6.58M285.24,96a2.48,2.48,0,0,1,2.52,1.79h5.15a7.23,7.23,0,0,0-7.58-5.9,7.56,7.56,0,0,0-7.93,7.17c0,.3,0,.6,0,.9a7.54,7.54,0,0,0,7,8.06c.31,0,.63,0,.94,0a7.32,7.32,0,0,0,7.58-5.91h-5.15a2.45,2.45,0,0,1-2.52,1.8c-1.72,0-2.91-1.35-2.91-4s1.19-4,2.91-4M224.3,91.93a7.56,7.56,0,0,0-8,7.11,7.69,7.69,0,0,0,0,1,7.57,7.57,0,0,0,7.07,8.06c.3,0,.6,0,.9,0a7.39,7.39,0,0,0,7.5-5.43h-5.15a2.58,2.58,0,0,1-2.52,1.52,2.92,2.92,0,0,1-3-2.83v-.18h11a13,13,0,0,0,.08-1.4,7.41,7.41,0,0,0-7-7.82,6.46,6.46,0,0,0-.88,0Zm-3.14,6.55a3,3,0,0,1,3.09-2.7,2.72,2.72,0,0,1,2.95,2.47,1.64,1.64,0,0,1,0,.23Zm34.92,4v-6.3h3.17v-4h-3.17V88.33h-4.83v3.82h-1.93v4h1.93v6.24c0,4.07,2.28,5.45,5.56,5.45h2.47v-4.07h-1.73c-1.07,0-1.47-.4-1.47-1.32m5.61-2.48h12.44V96H261.69Z" fill="#fff"/><path d="M95.7,104.57c-2-.67-4.59-.44-7.47-1.34a17,17,0,0,0,0-6.48c2.93-.93,5.49-.74,7.51-1.37A3.13,3.13,0,0,0,98,91.55a1,1,0,0,0,0-.18,3.22,3.22,0,0,0-4.1-2l0,0c-2,.67-4,2.33-6.86,3.32a17.12,17.12,0,0,0-3.78-5.18c1.82-2.43,4-3.82,5.24-5.49a3.16,3.16,0,0,0-4.92-4l-.18.25C82,80.05,81.41,82.54,79.65,85a17.27,17.27,0,0,0-6.1-2c0-3,1-5.4,1-7.49a3.18,3.18,0,0,0-6.35-.32v.32c0,2.09,1,4.47,1,7.49a17.27,17.27,0,0,0-6.1,2c-1.76-2.47-2.41-5-3.62-6.68a3.2,3.2,0,0,0-4.44-.85l-.06,0a3.15,3.15,0,0,0-.7,4.4,1.47,1.47,0,0,0,.1.13c1.22,1.71,3.42,3.06,5.24,5.49a17.06,17.06,0,0,0-3.79,5.2c-2.84-1-4.8-2.67-6.81-3.3a3.16,3.16,0,0,0-2.31,5.88l.34.11c2,.67,4.59.44,7.47,1.34a16.87,16.87,0,0,0,0,6.49c-2.91.91-5.46.73-7.47,1.35a3.18,3.18,0,0,0-2.23,3.88l0,.14a3.23,3.23,0,0,0,4.1,2l0,0c2-.67,4-2.31,6.82-3.31a17.24,17.24,0,0,0,3.78,5.17c-1.82,2.43-4,3.81-5.24,5.49a3.16,3.16,0,0,0,4.92,4l.18-.24c1.25-1.72,1.86-4.21,3.61-6.68a17.39,17.39,0,0,0,6.11,2c0,3-1,5.4-1,7.49a3.17,3.17,0,0,0,6.34.32,1.71,1.71,0,0,0,0-.32c0-2.09-1-4.47-1-7.49a17.27,17.27,0,0,0,6.1-2c1.76,2.47,2.41,5,3.62,6.68a3.16,3.16,0,1,0,5.28-3.48l-.18-.24c-1.21-1.72-3.42-3.07-5.24-5.49a17.19,17.19,0,0,0,3.79-5.2c2.84,1,4.8,2.67,6.81,3.3a3.16,3.16,0,0,0,2.3-5.88l-.33-.11M79.67,115l-3.82-5.24a10.68,10.68,0,1,1,3.47-2.52l3.82,5.24A16.91,16.91,0,0,1,79.67,115M71.41,93.59A6.41,6.41,0,1,0,77.83,100a6.42,6.42,0,0,0-6.42-6.41" fill="#fff"/></g></svg>