<svg width="45" height="37" viewBox="0 0 45 37" fill="none" xmlns="http://www.w3.org/2000/svg">
<path d="M41.7708 33.5889H2.64209V36.031H41.7708V33.5889Z" fill="#F77A10"/>
<path d="M6.9714 28.2353C6.75539 28.2353 6.54325 28.178 6.35662 28.0692C6.16999 27.9604 6.01555 27.8041 5.90906 27.6162L0.658392 18.3359C0.565654 18.1721 0.512065 17.989 0.501812 17.801C0.491559 17.613 0.52492 17.4252 0.599287 17.2522C0.673654 17.0792 0.787014 16.9258 0.930506 16.8039C1.074 16.682 1.24374 16.5949 1.42645 16.5495L3.91869 15.9304C4.08484 15.8898 4.25765 15.8847 4.42593 15.9152C4.59421 15.9457 4.75421 16.0112 4.89556 16.1074L8.9056 18.8463L17.209 16.6008L9.45509 3.20424C9.35552 3.0334 9.29893 2.84094 9.29019 2.64339C9.28144 2.44585 9.3208 2.24913 9.40488 2.07016C9.48896 1.89119 9.61525 1.73532 9.77288 1.61594C9.93052 1.49656 10.1148 1.41725 10.3098 1.38482L13.8644 0.791377C14.0427 0.761341 14.2255 0.771283 14.3995 0.820486C14.5735 0.869689 14.7344 0.956924 14.8706 1.07589L29.0205 13.4565L39.3814 10.6932C40.3974 10.4221 42.4977 10.6223 43.9275 13.0926C45.4454 15.7143 43.5966 17.9012 42.4061 18.6925C42.2961 18.7659 42.1748 18.8208 42.0471 18.8549L7.28766 28.1938C7.18451 28.2214 7.07818 28.2353 6.9714 28.2353ZM3.57434 18.5313L7.56851 25.5892L41.1935 16.5531C41.5867 16.2393 42.439 15.3931 41.8151 14.3137C41.0201 12.9424 40.1263 13.0328 39.9834 13.0572L29.0205 15.9805C28.8269 16.0324 28.6234 16.0358 28.4281 15.9904C28.2329 15.9451 28.0517 15.8523 27.9008 15.7204L13.6984 3.29582L12.4516 3.50463L20.1176 16.7571C20.2114 16.9187 20.2668 17.0997 20.2796 17.2861C20.2924 17.4725 20.2622 17.6593 20.1915 17.8323C20.1207 18.0052 20.0112 18.1596 19.8713 18.2835C19.7315 18.4075 19.5651 18.4977 19.385 18.5472L9.00573 21.3557C8.83516 21.4016 8.65665 21.4101 8.48252 21.3803C8.30838 21.3506 8.14277 21.2834 7.99711 21.1835L3.97974 18.4324L3.57434 18.5313ZM40.0115 13.0523H39.9895H40.0115Z" fill="url(#paint0_linear)"/>
<defs>
<linearGradient id="paint0_linear" x1="22.5" y1="0.774414" x2="22.5" y2="28.2353" gradientUnits="userSpaceOnUse">
<stop stop-color="#FF4444"/>
<stop offset="1" stop-color="#F77A10"/>
</linearGradient>
</defs>
</svg>
