<svg width="45" height="41" viewBox="0 0 45 41" fill="none" xmlns="http://www.w3.org/2000/svg">
<path d="M37.0447 40.0312H26.817C26.4902 40.0312 26.1768 39.9014 25.9457 39.6703C25.7146 39.4392 25.5848 39.1258 25.5848 38.799V22.7526H18.3145V38.799C18.3145 39.1258 18.1847 39.4392 17.9536 39.6703C17.7225 39.9014 17.4091 40.0312 17.0822 40.0312H6.85456C6.52775 40.0312 6.21432 39.9014 5.98323 39.6703C5.75214 39.4392 5.62231 39.1258 5.62231 38.799V22.7526H1.32175C1.07447 22.7525 0.832928 22.678 0.628544 22.5388C0.424161 22.3996 0.266388 22.2021 0.175741 21.9721C0.085094 21.742 0.0657661 21.49 0.120271 21.2488C0.174775 21.0076 0.30059 20.7883 0.481357 20.6196L21.1709 1.30035C21.3989 1.08832 21.6987 0.970459 22.01 0.970459C22.3214 0.970459 22.6212 1.08832 22.8492 1.30035L43.6952 20.6159C43.8771 20.7842 44.0041 21.0035 44.0594 21.2452C44.1148 21.4868 44.096 21.7395 44.0055 21.9702C43.915 22.201 43.757 22.3991 43.5522 22.5387C43.3473 22.6783 43.1051 22.7528 42.8573 22.7526H38.277V38.799C38.277 39.1258 38.1471 39.4392 37.916 39.6703C37.685 39.9014 37.3715 40.0312 37.0447 40.0312ZM28.0493 37.5667H35.8125V21.5204C35.8125 21.1936 35.9423 20.8801 36.1734 20.649C36.4045 20.4179 36.7179 20.2881 37.0447 20.2881H39.715L22.0149 3.88438L4.44674 20.2881H6.85456C7.18138 20.2881 7.4948 20.4179 7.72589 20.649C7.95699 20.8801 8.08681 21.1936 8.08681 21.5204V37.5667H15.85V21.5204C15.85 21.1936 15.9798 20.8801 16.2109 20.649C16.442 20.4179 16.7554 20.2881 17.0822 20.2881H26.817C27.1438 20.2881 27.4573 20.4179 27.6884 20.649C27.9195 20.8801 28.0493 21.1936 28.0493 21.5204V37.5667Z" fill="url(#paint0_linear)"/>
<defs>
<linearGradient id="paint0_linear" x1="8.04122" y1="45.6663" x2="37.0312" y2="5.31749" gradientUnits="userSpaceOnUse">
<stop stop-color="#F47A20"/>
<stop offset="1" stop-color="#EF4849"/>
</linearGradient>
</defs>
</svg>
