<svg width="37" height="50" viewBox="0 0 37 50" fill="none" xmlns="http://www.w3.org/2000/svg">
<path d="M24.7467 32.2981L23.6491 30.0453L28.0446 27.9014L25.8506 24.0141C25.7102 23.7648 25.6595 23.4749 25.7068 23.1927C25.7542 22.9106 25.8968 22.6532 26.1109 22.4634L31.8418 17.3759L25.2736 16.6825C25.0925 16.6634 24.9176 16.605 24.7614 16.5114C24.6051 16.4177 24.4712 16.2911 24.3689 16.1404C24.2667 15.9896 24.1985 15.8183 24.1693 15.6385C24.1401 15.4587 24.1505 15.2747 24.1998 15.0993L26.3099 7.56997L20.0372 9.89159C19.7721 9.98932 19.4818 9.99453 19.2135 9.90637C18.9451 9.8182 18.7145 9.64185 18.5591 9.40599L14.9909 4.00056L11.5479 9.25706C11.3942 9.49333 11.1653 9.67082 10.8982 9.76076C10.631 9.85071 10.3414 9.84786 10.0761 9.75267L3.51421 7.38474L4.97227 13.4447L2.53926 14.0305L0.53678 5.71142C0.484172 5.4919 0.491917 5.26223 0.559196 5.04675C0.626474 4.83127 0.75078 4.638 0.918947 4.4874C1.08711 4.33681 1.29288 4.2345 1.51445 4.19132C1.73602 4.14814 1.96515 4.16568 2.17756 4.24211L9.99473 7.06309L13.9396 1.03689C14.0532 0.863559 14.208 0.721134 14.3902 0.622398C14.5723 0.523662 14.7762 0.471706 14.9834 0.471192C15.1905 0.471089 15.3944 0.522374 15.5767 0.620449C15.7591 0.718523 15.9143 0.860323 16.0284 1.03314L20.101 7.19951L27.7442 4.37602C27.9606 4.29621 28.1948 4.27773 28.421 4.32263C28.6472 4.36753 28.8566 4.47407 29.0261 4.63048C29.1956 4.78689 29.3186 4.98709 29.3814 5.20898C29.4443 5.43086 29.4447 5.66581 29.3825 5.88789L27.0045 14.3521L34.9206 15.1881C35.1619 15.213 35.3909 15.3076 35.5795 15.4602C35.7681 15.6129 35.9083 15.8171 35.9829 16.048C36.0576 16.2789 36.0635 16.5265 36 16.7607C35.9365 16.9949 35.8063 17.2056 35.6252 17.3671L28.5277 23.6661L30.8781 27.8313C30.9619 27.9799 31.0144 28.1442 31.0324 28.3139C31.0504 28.4836 31.0335 28.6552 30.9827 28.8181C30.932 28.9811 30.8484 29.1319 30.7372 29.2614C30.626 29.3908 30.4895 29.4962 30.3361 29.5709L24.7467 32.2981Z" fill="url(#paint0_linear)"/>
<path d="M8.76193 18.4934H3.75574V20.9965H8.76193V18.4934Z" fill="url(#paint1_linear)"/>
<path d="M8.76193 23.4995H3.75574V26.0026H8.76193V23.4995Z" fill="#FB5E2B"/>
<path d="M8.76193 28.5059H3.75574V31.009H8.76193V28.5059Z" fill="#FA6425"/>
<path d="M8.76193 33.512H3.75574V36.0151H8.76193V33.512Z" fill="#F96A20"/>
<path d="M15.7707 49.031C14.1116 49.0291 12.5211 48.3691 11.348 47.196C10.1749 46.0229 9.51494 44.4323 9.51295 42.7733C9.51145 41.915 9.68872 41.0657 10.0335 40.2796C10.3782 39.4936 10.8829 38.7879 11.5154 38.2077V16.7411C11.5154 15.6125 11.9637 14.5302 12.7618 13.7322C13.5598 12.9342 14.6421 12.4858 15.7707 12.4858C16.8993 12.4858 17.9816 12.9342 18.7796 13.7322C19.5776 14.5302 20.026 15.6125 20.026 16.7411V38.2077C20.6584 38.7879 21.1631 39.4936 21.5079 40.2796C21.8527 41.0657 22.0299 41.915 22.0284 42.7733C22.0264 44.4323 21.3665 46.0229 20.1934 47.196C19.0203 48.3691 17.4297 49.0291 15.7707 49.031ZM15.7707 14.9889C15.306 14.9889 14.8603 15.1735 14.5317 15.5021C14.2031 15.8307 14.0185 16.2764 14.0185 16.7411V38.7909C14.0185 38.9852 13.9733 39.1768 13.8864 39.3506C13.7995 39.5244 13.6733 39.6755 13.5179 39.7921C13.0526 40.1377 12.6745 40.5872 12.4138 41.1048C12.153 41.6224 12.0168 42.1937 12.016 42.7733C12.016 43.7691 12.4116 44.7241 13.1158 45.4282C13.8199 46.1324 14.7749 46.5279 15.7707 46.5279C16.7665 46.5279 17.7215 46.1324 18.4256 45.4282C19.1298 44.7241 19.5253 43.7691 19.5253 42.7733C19.525 42.1933 19.3889 41.6214 19.1282 41.1034C18.8674 40.5853 18.4891 40.1354 18.0235 39.7896C17.868 39.673 17.7419 39.5219 17.655 39.3481C17.5681 39.1743 17.5229 38.9827 17.5229 38.7884V16.7411C17.5229 16.2764 17.3383 15.8307 17.0097 15.5021C16.6811 15.1735 16.2354 14.9889 15.7707 14.9889Z" fill="url(#paint2_linear)"/>
<defs>
<linearGradient id="paint0_linear" x1="9.75" y1="40.25" x2="25.4" y2="-0.71027" gradientUnits="userSpaceOnUse">
<stop stop-color="#F47A20"/>
<stop offset="1" stop-color="#EF4849"/>
</linearGradient>
<linearGradient id="paint1_linear" x1="-272.386" y1="867.919" x2="37.5129" y2="-267.696" gradientUnits="userSpaceOnUse">
<stop stop-color="#F47A20"/>
<stop offset="1" stop-color="#EF4849"/>
</linearGradient>
<linearGradient id="paint2_linear" x1="15.7707" y1="-2.99266e-07" x2="15.7707" y2="49.031" gradientUnits="userSpaceOnUse">
<stop stop-color="#FF4444"/>
<stop offset="1" stop-color="#F77A10"/>
</linearGradient>
</defs>
</svg>
