<svg width="42" height="42" viewBox="0 0 42 42" fill="none" xmlns="http://www.w3.org/2000/svg">
<circle cx="20.75" cy="20.75" r="20.75" fill="#F77A10"/>
<path d="M20.7501 8.198C15.8924 8.198 11.9636 12.1268 11.9636 16.9845C11.9636 23.5743 20.7501 33.3022 20.7501 33.3022C20.7501 33.3022 29.5365 23.5743 29.5365 16.9845C29.5365 12.1268 25.6077 8.198 20.7501 8.198ZM14.474 16.9845C14.474 13.5201 17.2857 10.7084 20.7501 10.7084C24.2145 10.7084 27.0261 13.5201 27.0261 16.9845C27.0261 20.5995 23.4111 26.0094 20.7501 29.3859C18.1392 26.0345 14.474 20.5618 14.474 16.9845Z" fill="white"/>
<path d="M20.7501 20.1225C22.4832 20.1225 23.8881 18.7175 23.8881 16.9845C23.8881 15.2514 22.4832 13.8464 20.7501 13.8464C19.017 13.8464 17.6121 15.2514 17.6121 16.9845C17.6121 18.7175 19.017 20.1225 20.7501 20.1225Z" fill="white"/>
</svg>
