<svg width="43" height="42" viewBox="0 0 43 42" fill="none" xmlns="http://www.w3.org/2000/svg">
<circle cx="21.7134" cy="20.75" r="20.75" fill="#FF4444"/>
<path d="M32.7134 13.75V27.75H10.7134V13.75H32.7134ZM32.7134 11.75H10.7134C9.60338 11.75 8.71338 12.65 8.71338 13.75V27.75C8.71338 28.85 9.60338 29.75 10.7134 29.75H32.7134C33.8134 29.75 34.7134 28.85 34.7134 27.75V13.75C34.7134 12.65 33.8134 11.75 32.7134 11.75ZM17.7134 20.75C16.0634 20.75 14.7134 19.4 14.7134 17.75C14.7134 16.1 16.0634 14.75 17.7134 14.75C19.3634 14.75 20.7134 16.1 20.7134 17.75C20.7134 19.4 19.3634 20.75 17.7134 20.75ZM17.7134 16.75C17.1634 16.75 16.7134 17.2 16.7134 17.75C16.7134 18.3 17.1634 18.75 17.7134 18.75C18.2634 18.75 18.7134 18.3 18.7134 17.75C18.7134 17.2 18.2634 16.75 17.7134 16.75ZM23.7134 26.75H11.7134V25.22C11.7134 22.72 15.6834 21.64 17.7134 21.64C19.7434 21.64 23.7134 22.72 23.7134 25.22V26.75ZM14.0234 24.75H21.4034C20.7134 24.19 19.0234 23.63 17.7134 23.63C16.4034 23.63 14.7034 24.19 14.0234 24.75Z" fill="white"/>
</svg>
