<svg width="42" height="43" viewBox="0 0 42 43" fill="none" xmlns="http://www.w3.org/2000/svg">
<circle cx="21.25" cy="21.3618" r="20.75" fill="#F77A10"/>
<path d="M14.4643 31.5404C12.9714 31.5404 11.75 32.7619 11.75 34.2547H30.75C30.75 32.7619 29.5286 31.5404 28.0357 31.5404H22.6071V28.8261H26.6786C28.1714 28.8261 29.3929 27.6047 29.3929 26.1119H18.5357C16.2829 26.1119 14.4643 24.2933 14.4643 22.0404C14.4643 20.5611 15.265 19.2719 16.4593 18.5526C17.0157 19.3533 17.8979 19.9097 18.9429 19.9911C19.8929 20.0726 20.7886 19.7333 21.4536 19.1497L22.2543 21.3347L23.53 20.8733L23.9914 22.149L26.5429 21.2261L26.0814 19.9504L27.3571 19.489L23.6386 9.28328L22.3629 9.74471L21.9014 8.46899L19.35 9.39185L19.8114 10.6676L18.5357 11.1426L19.2957 13.2461C17.7079 13.1919 16.3236 14.264 15.93 15.7704C13.4736 16.8019 11.75 19.2176 11.75 22.0404C11.75 25.7861 14.79 28.8261 18.5357 28.8261V31.5404H14.4643ZM22.4171 11.889L24.7379 18.2676L23.4621 18.729L21.1414 12.3504L22.4171 11.889ZM19.2143 15.2547C19.9607 15.2547 20.5714 15.8654 20.5714 16.6119C20.5714 17.3583 19.9607 17.969 19.2143 17.969C18.4679 17.969 17.8571 17.3583 17.8571 16.6119C17.8571 15.8654 18.4679 15.2547 19.2143 15.2547Z" fill="white"/>
</svg>
