<svg width="43" height="43" viewBox="0 0 43 43" fill="none" xmlns="http://www.w3.org/2000/svg">
<circle cx="21.7134" cy="21.4736" r="20.75" fill="#FF4444"/>
<path d="M10.7134 30.4736H25.7234V31.4536C25.7234 32.0136 25.2734 32.4636 24.7134 32.4636H11.7234C11.1634 32.4636 10.7134 32.0136 10.7134 31.4536V30.4736ZM30.2034 32.7836L25.7134 28.3036V28.4736H10.7134V26.4736H23.8834L21.8834 24.4736H10.7134C10.7134 21.2336 13.1734 19.3036 16.0934 18.6836L10.3934 12.9836L11.8134 11.5736L22.7134 22.4736L24.7134 24.4736L31.6134 31.3736L30.2034 32.7836ZM19.8834 22.4736L17.8834 20.4736C16.4634 20.5336 14.3634 21.0336 13.3334 22.4736H19.8834ZM32.7134 14.4736H27.7134V10.4736H25.7134V14.4736H20.7134L20.9434 16.4736H30.5034L29.5034 26.4436L31.3334 28.2736L32.7134 14.4736Z" fill="white"/>
</svg>
