<svg width="43" height="43" viewBox="0 0 43 43" fill="none" xmlns="http://www.w3.org/2000/svg">
<circle cx="21.7134" cy="21.4736" r="20.75" fill="#FF4444"/>
<path d="M31.3844 14.7368C29.6952 14.7368 28.3284 16.0392 28.1866 17.7026C25.7624 17.0579 24.5245 15.3816 21.7134 15.3816C18.8895 15.3816 17.6645 17.0579 15.2403 17.7026C15.0984 16.0521 13.7316 14.7368 12.0424 14.7368C10.2629 14.7368 8.81873 16.181 8.81873 17.9605V18.6052C8.81873 26.342 13.4608 28.676 17.2261 28.8952C18.5284 29.7204 20.0629 30.2104 21.7134 30.2104C23.3639 30.2104 24.8984 29.7204 26.2008 28.8952C29.966 28.676 34.6081 26.342 34.6081 18.6052V17.9605C34.6081 16.181 33.1639 14.7368 31.3844 14.7368ZM10.7529 18.6052V17.9605C10.7529 17.2513 11.3332 16.671 12.0424 16.671C12.7516 16.671 13.3319 17.2513 13.3319 17.9605V21.8289C13.3319 23.4794 13.8219 25.0139 14.6342 26.3163C12.6742 25.4007 10.7529 23.3118 10.7529 18.6052ZM15.2661 21.8289V19.7013C16.7103 19.4047 17.7805 18.8115 18.6961 18.3086C19.7534 17.7413 20.5142 17.3158 21.7134 17.3158C22.9126 17.3158 23.6734 17.7413 24.7308 18.3215C25.6463 18.8244 26.7166 19.4047 28.1608 19.7142V21.8418C28.1608 25.4007 25.2724 28.2891 21.7134 28.2891C18.1545 28.2891 15.2661 25.3878 15.2661 21.8289ZM32.6739 18.6052C32.6739 23.3118 30.7526 25.4007 28.7926 26.3163C29.6179 25.0139 30.095 23.4794 30.095 21.8289V17.9605C30.095 17.2513 30.6752 16.671 31.3844 16.671C32.0936 16.671 32.6739 17.2513 32.6739 17.9605V18.6052ZM20.0242 20.5136C19.4568 20.8489 18.7863 21.2357 17.845 21.4936V20.1526C18.464 19.9334 18.9282 19.6626 19.3666 19.4047C20.0629 18.9921 20.7205 18.6052 21.7134 18.6052C22.7063 18.6052 23.351 18.9921 24.0345 19.4047C24.4729 19.6626 24.95 19.9463 25.5818 20.1655V21.5065C24.6147 21.2357 23.9571 20.8489 23.3768 20.5007C22.7837 20.1526 22.3453 19.8947 21.7134 19.8947C21.0816 19.8947 20.6303 20.1526 20.0242 20.5136Z" fill="white"/>
</svg>
