<svg width="43" height="42" viewBox="0 0 43 42" fill="none" xmlns="http://www.w3.org/2000/svg">
<circle cx="21.5535" cy="20.776" r="20.75" fill="#FF4444"/>
<path d="M21.5535 8.224C16.6959 8.224 12.7671 12.1528 12.7671 17.0105C12.7671 23.6003 21.5535 33.3282 21.5535 33.3282C21.5535 33.3282 30.34 23.6003 30.34 17.0105C30.34 12.1528 26.4112 8.224 21.5535 8.224ZM15.2775 17.0105C15.2775 13.5461 18.0892 10.7344 21.5535 10.7344C25.0179 10.7344 27.8296 13.5461 27.8296 17.0105C27.8296 20.6255 24.2146 26.0354 21.5535 29.4119C18.9427 26.0605 15.2775 20.5878 15.2775 17.0105Z" fill="white"/>
<path d="M21.5535 20.1485C23.2866 20.1485 24.6916 18.7435 24.6916 17.0105C24.6916 15.2774 23.2866 13.8724 21.5535 13.8724C19.8205 13.8724 18.4155 15.2774 18.4155 17.0105C18.4155 18.7435 19.8205 20.1485 21.5535 20.1485Z" fill="white"/>
</svg>
