<svg width="289" height="303" viewBox="0 0 289 303" fill="none" xmlns="http://www.w3.org/2000/svg">
<path d="M288.701 158.286C288.701 229.874 203.751 280.91 128.695 280.91C53.6387 280.91 0.829102 178.559 0.829102 106.971C0.829102 35.3824 42.4592 12.3367 117.515 12.3367C192.571 12.3367 288.701 86.698 288.701 158.286Z" fill="#F77A10" fill-opacity="0.4"/>
<path d="M288.701 158.286C288.701 229.874 203.751 280.91 128.695 280.91C53.6387 280.91 0.829102 178.559 0.829102 106.971C0.829102 35.3824 42.4592 12.3367 117.515 12.3367C192.571 12.3367 288.701 86.698 288.701 158.286Z" fill="url(#paint0_linear)" fill-opacity="0.4"/>
<path d="M122.43 207.332C122.43 207.332 123.12 222.282 117.97 254.622C123.56 258.082 142.23 264.942 159.18 257.192C176.13 249.442 149.34 207.332 149.34 207.332" fill="#008DA3"/>
<path d="M122.43 207.332C122.43 207.332 123.12 222.282 117.97 254.622C123.56 258.082 142.23 264.942 159.18 257.192C176.13 249.442 149.34 207.332 149.34 207.332" stroke="#006469" stroke-width="3" stroke-linecap="round" stroke-linejoin="round"/>
<path d="M70.45 212.722C65.32 211.052 62.73 192.552 62.73 192.552L84.29 194.332L82.38 209.012" fill="#008DA3"/>
<path d="M70.45 212.722C65.32 211.052 62.73 192.552 62.73 192.552L84.29 194.332L82.38 209.012" stroke="#006469" stroke-width="3" stroke-linecap="round" stroke-linejoin="round"/>
<path d="M33.7601 143.892C33.2801 139.052 32.9401 133.522 25.1401 122.392C21.2301 116.802 22.4501 108.962 32.3701 113.832C42.2901 118.702 50.7201 140.032 50.7201 140.032C50.7201 140.032 54.4301 120.652 67.0001 118.762C79.5701 116.872 71.3101 125.072 67.6801 131.432C64.0501 137.792 54.3001 151.432 76.5201 164.432L85.5201 195.492L76.8501 200.112" fill="white"/>
<path d="M33.7601 143.892C33.2801 139.052 32.9401 133.522 25.1401 122.392C21.2301 116.802 22.4501 108.962 32.3701 113.832C42.2901 118.702 50.7201 140.032 50.7201 140.032C50.7201 140.032 54.4301 120.652 67.0001 118.762C79.5701 116.872 71.3101 125.072 67.6801 131.432C64.0501 137.792 54.3001 151.432 76.5201 164.432L85.5201 195.492L76.8501 200.112" stroke="#221F1F" stroke-width="3" stroke-linecap="round" stroke-linejoin="round"/>
<path d="M35.4199 160.882C31.7999 159.002 26.8799 154.522 26.0699 151.482C25.2599 148.442 27.7199 144.412 30.3099 140.082C33.3099 135.082 48.5999 121.082 47.8899 138.732" fill="white"/>
<path d="M35.4199 160.882C31.7999 159.002 26.8799 154.522 26.0699 151.482C25.2599 148.442 27.7199 144.412 30.3099 140.082C33.3099 135.082 48.5999 121.082 47.8899 138.732" stroke="#221F1F" stroke-width="3" stroke-linecap="round" stroke-linejoin="round"/>
<path d="M45.83 163.332C47.06 153.262 58.11 142.252 52.1 138.262C47.56 135.262 36.93 148.112 35.02 152.062C33.11 156.012 27.59 163.392 33.22 169.532C38.22 175.032 43.64 178.022 47.92 185.272C57.92 202.272 70.45 203.882 77.98 204.892C80.79 205.332 88.86 207.332 88.86 207.332L83.46 178.112L76.53 166.182" fill="white"/>
<path d="M45.22 163.272C45.3751 160.25 46.0906 157.283 47.33 154.522C48.43 151.762 49.8 149.162 50.93 146.582C51.5064 145.371 51.9458 144.1 52.24 142.792C52.3591 142.247 52.3861 141.686 52.32 141.132C52.2587 140.703 52.0707 140.303 51.78 139.982C51.6153 139.817 51.4344 139.67 51.24 139.542C51.1071 139.456 50.9567 139.402 50.8 139.382C50.3313 139.328 49.8566 139.393 49.42 139.572C48.2217 140.067 47.1056 140.741 46.11 141.572C43.9336 143.338 41.9463 145.325 40.18 147.502C39.28 148.582 38.41 149.712 37.63 150.852C37.25 151.422 36.87 152.012 36.58 152.562L36.09 153.562L35.56 154.562C34.1371 156.886 33.1225 159.436 32.56 162.102C32.3573 163.29 32.4361 164.509 32.79 165.662C33.1874 166.812 33.8444 167.856 34.71 168.712C36.62 170.712 38.77 172.642 40.96 174.622C43.2284 176.609 45.3012 178.809 47.15 181.192C47.62 181.792 48.05 182.432 48.48 183.062L49.66 184.972C50.39 186.192 51.17 187.362 51.99 188.512C53.6123 190.796 55.4728 192.901 57.54 194.792C61.6549 198.523 66.6687 201.121 72.09 202.332C73.46 202.652 74.85 202.912 76.26 203.122L78.42 203.442C79.21 203.562 79.93 203.712 80.65 203.872C83.55 204.492 86.37 205.222 89.21 205.952L87.47 207.582C86.47 202.722 85.6 197.852 84.72 192.982C83.84 188.112 83 183.222 82.23 178.332L82.38 178.732C81.26 176.732 80.17 174.732 79.09 172.662C78.01 170.592 76.95 168.592 75.91 166.532C75.8413 166.368 75.8344 166.186 75.8905 166.018C75.9466 165.85 76.0619 165.708 76.2148 165.619C76.3678 165.529 76.548 165.499 76.7219 165.532C76.8958 165.566 77.0515 165.662 77.16 165.802C78.43 167.732 79.68 169.662 80.9 171.612C82.12 173.562 83.35 175.512 84.54 177.482C84.5979 177.589 84.6416 177.703 84.67 177.822V177.882C85.67 182.722 86.67 187.592 87.59 192.452C88.51 197.312 89.41 202.182 90.24 207.062C90.3009 207.429 90.2142 207.805 89.9987 208.109C89.7833 208.412 89.4567 208.618 89.09 208.682C88.8954 208.722 88.6946 208.722 88.5 208.682C85.69 208.012 82.85 207.352 80.04 206.782C79.34 206.652 78.63 206.512 77.97 206.422L75.81 206.132C74.34 205.922 72.81 205.672 71.39 205.342C65.39 204.076 59.834 201.239 55.29 197.122C53.057 195.079 51.0458 192.807 49.29 190.342C48.41 189.122 47.5833 187.872 46.81 186.592L45.69 184.792C45.29 184.222 44.91 183.642 44.48 183.102C42.7497 180.885 40.8072 178.842 38.68 177.002C36.55 175.072 34.28 173.132 32.23 170.902C31.0103 169.694 30.1005 168.21 29.5782 166.575C29.0558 164.94 28.9364 163.203 29.23 161.512C29.8826 158.471 31.0603 155.568 32.71 152.932L33.22 151.992L33.72 150.992C34.12 150.262 34.54 149.622 34.97 148.992C35.84 147.732 36.76 146.552 37.72 145.412C39.6469 143.074 41.8119 140.942 44.18 139.052C45.4413 138.02 46.8636 137.202 48.39 136.632C49.3156 136.288 50.3126 136.181 51.29 136.322C51.8577 136.414 52.3995 136.626 52.88 136.942C53.2972 137.226 53.6769 137.562 54.01 137.942C54.7003 138.708 55.149 139.661 55.3 140.682C55.4116 141.578 55.3744 142.487 55.19 143.372C54.8373 144.907 54.3175 146.399 53.64 147.822C51.12 153.242 47.83 157.942 46.41 163.432C46.3719 163.578 46.2817 163.705 46.1564 163.79C46.0311 163.874 45.8792 163.91 45.7293 163.89C45.5795 163.871 45.442 163.797 45.3427 163.683C45.2433 163.569 45.189 163.423 45.19 163.272H45.22Z" fill="#221F1F"/>
<path d="M144.61 160.782C132.61 167.542 89.49 176.942 74.47 163.162C73.75 175.162 75.58 195.412 70.47 212.722C77.27 215.342 103.36 226.382 124.47 212.722" fill="#B5E2EB"/>
<path d="M144.61 160.782C132.61 167.542 89.49 176.942 74.47 163.162C73.75 175.162 75.58 195.412 70.47 212.722C77.27 215.342 103.36 226.382 124.47 212.722" stroke="#006469" stroke-width="3" stroke-linecap="round" stroke-linejoin="round"/>
<path d="M51.85 128.142C57.8588 128.142 62.73 123.271 62.73 117.262C62.73 111.253 57.8588 106.382 51.85 106.382C45.8411 106.382 40.97 111.253 40.97 117.262C40.97 123.271 45.8411 128.142 51.85 128.142Z" fill="#D1D3D4" stroke="#58595B" stroke-width="3" stroke-linecap="round" stroke-linejoin="round"/>
<path d="M176.55 244.922C176.55 244.922 174.67 263.612 175.1 267.492C175.53 271.372 178.31 271.492 178.48 276.602C178.65 281.712 164.24 281.602 155.06 293.652C152.06 297.652 148.21 298.212 144.4 296.652C140.83 295.212 141.86 292.082 139.32 290.402C136.78 288.722 134.14 290.192 131.25 288.942C128.36 287.692 129.41 284.542 126.56 283.672C123.71 282.802 117.83 282.722 117.97 279.182C118.09 276.352 122.79 274.012 131.33 273.062C139.87 272.112 168.33 274.062 167.59 267.492C166.85 260.922 166.38 241.712 166.38 241.712" fill="#ED8223"/>
<path d="M176.55 244.922C176.55 244.922 174.67 263.612 175.1 267.492C175.53 271.372 178.31 271.492 178.48 276.602C178.65 281.712 164.24 281.602 155.06 293.652C152.06 297.652 148.21 298.212 144.4 296.652C140.83 295.212 141.86 292.082 139.32 290.402C136.78 288.722 134.14 290.192 131.25 288.942C128.36 287.692 129.41 284.542 126.56 283.672C123.71 282.802 117.83 282.722 117.97 279.182C118.09 276.352 122.79 274.012 131.33 273.062C139.87 272.112 168.33 274.062 167.59 267.492C166.85 260.922 166.38 241.712 166.38 241.712" stroke="#221F1F" stroke-width="3" stroke-linecap="round" stroke-linejoin="round"/>
<path d="M159.11 29.4719C160.11 23.7719 174.29 17.5719 185.8 23.7319C188.87 26.1419 194.66 20.6119 197.9 24.0219C199.04 25.2219 195.44 29.0219 196.97 30.2519C198.5 31.4819 203.42 30.2019 203.55 32.7519C203.68 35.3019 200.91 36.9819 201.23 39.7519C201.55 42.5219 207.63 56.9819 189.51 70.0619C181.82 75.6019 157.09 146.332 165.76 162.062C170.05 169.862 175.21 178.682 189.14 183.482C200.46 187.382 217.28 189.952 219.37 190.602C221.46 191.252 224.37 200.002 226.61 204.602C231.69 214.752 220.53 248.892 186.89 253.862C145.66 259.952 116.79 230.132 126.23 195.862C129.94 182.392 142.23 168.142 144.61 160.862C149.61 145.432 149.73 145.452 161.61 103.202C161.61 103.202 164.89 84.5219 171.45 71.6619C178.01 58.8019 169.81 57.3019 169.81 57.3019" fill="white"/>
<path d="M159.11 29.4719C160.11 23.7719 174.29 17.5719 185.8 23.7319C188.87 26.1419 194.66 20.6119 197.9 24.0219C199.04 25.2219 195.44 29.0219 196.97 30.2519C198.5 31.4819 203.42 30.2019 203.55 32.7519C203.68 35.3019 200.91 36.9819 201.23 39.7519C201.55 42.5219 207.63 56.9819 189.51 70.0619C181.82 75.6019 157.09 146.332 165.76 162.062C170.05 169.862 175.21 178.682 189.14 183.482C200.46 187.382 217.28 189.952 219.37 190.602C221.46 191.252 224.37 200.002 226.61 204.602C231.69 214.752 220.53 248.892 186.89 253.862C145.66 259.952 116.79 230.132 126.23 195.862C129.94 182.392 142.23 168.142 144.61 160.862C149.61 145.432 149.73 145.452 161.61 103.202C161.61 103.202 164.89 84.5219 171.45 71.6619C178.01 58.8019 169.81 57.3019 169.81 57.3019" stroke="#221F1F" stroke-width="3" stroke-linecap="round" stroke-linejoin="round"/>
<path d="M201.54 237.092C209.12 237.092 206.35 258.502 204.67 274.092C204.07 278.602 216.14 286.772 219.95 289.842C223.76 292.912 224.69 298.022 216.95 297.992C212.48 298.212 212.69 296.842 209.16 296.882C205.63 296.922 203.52 301.152 198.9 301.112C194.28 301.072 193.99 297.212 190.31 296.982C186.63 296.752 181.04 298.462 176.69 298.132C172.34 297.802 169.69 294.132 173.92 291.352C178.15 288.572 195.99 282.732 196.86 275.352C197.73 267.972 194 237.092 201.54 237.092Z" fill="#ED8223" stroke="#221F1F" stroke-width="3" stroke-linecap="round" stroke-linejoin="round"/>
<path d="M163 46.1917C163.35 42.3217 162 39.0317 160 38.8517C158 38.6717 156.06 41.6617 155.71 45.5417C155.36 49.4217 156.71 52.6917 158.71 52.8817C160.71 53.0717 162.61 50.0717 163 46.1917Z" fill="#221F1F"/>
<path d="M162.83 46.7818C163.18 42.9018 161.83 39.6218 159.83 39.4418C157.83 39.2618 155.89 42.2518 155.54 46.1218C155.19 49.9918 156.54 53.2818 158.54 53.4618C160.54 53.6418 162.48 50.6518 162.83 46.7818Z" fill="#221F1F"/>
<path d="M167 42.4517C167.86 35.7017 165.18 29.8117 161 29.2817C156.82 28.7517 152.76 33.7817 151.9 40.5317C151.04 47.2817 153.72 53.1717 157.9 53.7017C162.08 54.2317 166.15 49.1917 167 42.4517Z" fill="white" stroke="#221F1F" stroke-width="3" stroke-linecap="round" stroke-linejoin="round"/>
<path d="M163.56 46.3319C163.91 42.4619 162.56 39.1718 160.56 38.9918C158.56 38.8118 156.62 41.8019 156.28 45.6719C155.94 49.5419 157.28 52.8319 159.28 53.0119C161.28 53.1919 163.21 50.2219 163.56 46.3319Z" fill="#221F1F"/>
<path d="M78.0901 86.8818C78.0901 86.8818 139.09 83.2618 152.2 62.6018C160.2 50.0018 166.76 61.9418 166.76 61.9418L163.76 78.4618L95.8901 96.6218" fill="#C16328"/>
<path d="M78.0901 86.8818C78.0901 86.8818 139.09 83.2618 152.2 62.6018C160.2 50.0018 166.76 61.9418 166.76 61.9418L163.76 78.4618L95.8901 96.6218" stroke="#221F1F" stroke-width="3" stroke-linecap="round" stroke-linejoin="round"/>
<path d="M128.71 92.9019C129.025 86.5561 131.518 80.513 135.77 75.7919C142.33 68.8419 151.35 66.1919 157.01 65.4219C162.67 64.6519 164.95 66.1219 164.95 66.1219C164.95 66.1219 156.32 75.3819 149.14 81.7619C141.96 88.1419 128.71 92.9019 128.71 92.9019Z" fill="#ED5C24" stroke="#231F20" stroke-width="3" stroke-linecap="round" stroke-linejoin="round"/>
<path d="M178.2 56.0718C163.09 76.4918 113.52 62.5418 92.1999 61.9218C78.9599 61.5218 70.4999 67.1018 70.4999 67.1018C66.1399 53.9518 76.0999 54.5418 83.6399 54.4618C92.0299 54.3818 102.92 53.8118 122.81 54.4618C156.3 55.6318 180.65 41.4618 185.81 49.9018C189.62 56.1818 180.4 67.9018 167.81 90.6818C156.18 111.842 151.81 161.542 120.29 162.492C88.5599 163.442 89.4199 109.072 89.2899 105.492C89.1599 101.912 87.5999 99.4918 83.0199 97.3618C78.4399 95.2318 76.2299 87.7718 77.6399 87.3618C79.0499 86.9518 134.69 100.362 165.14 64.9718" fill="#ED8223"/>
<path d="M178.4 56.2218C177.059 58.1867 175.4 59.9138 173.49 61.3318C171.558 62.7448 169.454 63.9074 167.23 64.7918C162.782 66.4918 158.116 67.5556 153.37 67.9518C143.93 68.8518 134.5 68.1718 125.19 67.1718C115.88 66.1718 106.64 64.6418 97.44 63.7418C92.9303 63.207 88.369 63.2844 83.88 63.9718C81.6636 64.3459 79.4802 64.8942 77.35 65.6118C76.28 65.9718 75.24 66.3918 74.22 66.8418C73.2218 67.2676 72.2559 67.7656 71.33 68.3318L69.64 69.3318L69.08 67.5118C68.1553 65.064 67.8129 62.4347 68.08 59.8318C68.2846 58.3259 68.9642 56.9247 70.02 55.8318C71.0547 54.8389 72.3189 54.1174 73.7 53.7318C76.1328 53.1087 78.6395 52.8227 81.15 52.8818C83.54 52.8818 85.86 52.8818 88.23 52.7818C97.69 52.5418 107.23 52.4718 116.68 52.7218L123.78 52.9318C126.11 52.9918 128.45 52.9918 130.78 52.9318C135.465 52.7672 140.138 52.3566 144.78 51.7018C149.42 51.0518 154.04 50.1918 158.65 49.2318C163.26 48.2718 167.86 47.2318 172.6 46.3618C175.026 45.8988 177.491 45.6711 179.96 45.6818C181.327 45.7008 182.681 45.958 183.96 46.4418C185.391 47.0153 186.571 48.0786 187.29 49.4418C187.971 50.7286 188.282 52.1788 188.19 53.6318C188.116 54.9439 187.874 56.2412 187.47 57.4918C186.689 59.8506 185.708 62.1388 184.54 64.3318C182.34 68.6118 179.91 72.6818 177.54 76.7718C175.17 80.8618 172.78 84.9418 170.48 89.0618C169.32 91.1418 168.21 93.1218 167.28 95.2518C166.35 97.3818 165.47 99.5318 164.65 101.722C163.02 106.122 161.56 110.612 160.07 115.102C157.07 124.102 154.07 133.102 149.65 141.722C147.473 146.069 144.751 150.122 141.55 153.782C138.273 157.544 134.136 160.46 129.49 162.282C127.145 163.155 124.693 163.707 122.2 163.922C119.708 164.163 117.194 164.059 114.73 163.612C112.242 163.148 109.85 162.273 107.65 161.022C105.464 159.765 103.481 158.184 101.77 156.332C98.4709 152.669 95.8774 148.428 94.12 143.822C92.3507 139.332 91.0114 134.685 90.12 129.942C89.2181 125.236 88.5937 120.481 88.25 115.702C88.07 113.322 87.95 110.935 87.89 108.542V106.762V105.882C87.89 105.612 87.89 105.362 87.89 105.102C87.8018 104.124 87.4978 103.178 87 102.332C86.4895 101.493 85.8081 100.77 85 100.212C84.5641 99.8924 84.11 99.5986 83.64 99.3318C83.4 99.2018 83.16 99.0718 82.91 98.9518L82.09 98.5518C80.8672 97.9015 79.7915 97.0062 78.93 95.9218C78.0973 94.9071 77.4014 93.7875 76.86 92.5918C76.2698 91.3527 75.9041 90.0186 75.78 88.6518C75.7335 88.1423 75.8054 87.6289 75.99 87.1518C76.0928 86.8939 76.2481 86.6603 76.4461 86.4657C76.6441 86.2712 76.8804 86.12 77.14 86.0218C77.3121 85.9674 77.49 85.9338 77.67 85.9218H77.91H78.22C78.89 86.0018 79.45 86.0918 80.04 86.1818C82.38 86.5318 84.7 86.8618 87.04 87.1218C96.3366 88.2163 105.724 88.3069 115.04 87.3918C124.337 86.5589 133.447 84.2781 142.04 80.6318C150.612 76.9311 158.301 71.4539 164.6 64.5618L165.69 65.4918C159.539 72.9238 151.803 78.886 143.05 82.9418C134.29 86.9461 124.926 89.4704 115.34 90.4118C105.807 91.3572 96.1987 91.2466 86.69 90.0818C84.32 89.8118 81.95 89.4818 79.61 89.0818C79.04 89.0018 78.42 88.9018 77.93 88.8418H77.81C77.9163 88.8338 78.0207 88.8103 78.12 88.7718C78.2439 88.7336 78.358 88.6692 78.4547 88.5829C78.5513 88.4966 78.6282 88.3905 78.68 88.2718C78.68 88.1318 78.68 88.3418 78.68 88.5218C78.796 89.5146 79.0765 90.4811 79.51 91.3818C80.2858 93.2842 81.6532 94.8866 83.41 95.9518C85.49 96.9518 88.05 98.3118 89.5 100.832C90.1899 102.06 90.5997 103.426 90.7 104.832C90.7 105.152 90.76 105.492 90.76 105.832V106.732V108.492C90.83 110.832 90.94 113.172 91.12 115.492C91.4712 120.138 92.099 124.76 93 129.332C93.8506 133.893 95.133 138.363 96.83 142.682C98.449 146.967 100.846 150.917 103.9 154.332C106.907 157.629 110.898 159.867 115.28 160.712C119.702 161.482 124.25 161.068 128.46 159.512C132.663 157.86 136.403 155.215 139.36 151.802C142.38 148.316 144.947 144.462 147 140.332C151.27 132.062 154.26 123.102 157.23 114.142C158.72 109.652 160.23 105.142 161.84 100.662C162.68 98.4318 163.55 96.1918 164.55 94.0018C165.548 91.8107 166.656 89.6713 167.87 87.5918C170.18 83.4418 172.56 79.3418 174.95 75.2518C177.34 71.1618 179.74 67.1018 181.86 62.9618C182.931 60.9476 183.831 58.8469 184.55 56.6818C185.19 54.5918 185.47 52.4318 184.55 50.9118C184.156 50.1565 183.497 49.5728 182.7 49.2718C181.739 48.9214 180.723 48.7421 179.7 48.7418C177.434 48.7326 175.174 48.947 172.95 49.3818C168.37 50.1818 163.75 51.2718 159.11 52.2318C154.47 53.1918 149.77 54.0718 145.04 54.7318C140.302 55.4055 135.532 55.8294 130.75 56.0018C128.36 56.0818 125.96 56.0918 123.57 56.0018L116.48 55.7918C107.04 55.5418 97.62 55.6218 88.16 55.8518C85.81 55.9118 83.4 55.9418 81.06 55.9518C78.8344 55.8954 76.6113 56.1376 74.45 56.6718C73.543 56.9192 72.7093 57.3824 72.02 58.0218C71.437 58.6795 71.0796 59.5064 71 60.3818C70.8274 62.5054 71.1315 64.6407 71.89 66.6318L69.64 65.8518C70.7204 65.1982 71.8429 64.6169 73 64.1118C74.1035 63.6116 75.2316 63.1677 76.38 62.7818C78.6592 61.9952 81.0009 61.4031 83.38 61.0118C88.128 60.289 92.9521 60.215 97.72 60.7918C107.1 61.7918 116.28 63.3318 125.51 64.3918C130.12 64.9418 134.74 65.3918 139.36 65.6718C143.965 65.97 148.583 65.9934 153.19 65.7418C157.772 65.5256 162.307 64.7155 166.68 63.3318C171.074 61.979 174.998 59.4141 178 55.9318L178.4 56.2218Z" fill="#221F1F"/>
<path d="M177.25 45.6917C177.6 41.8217 176.25 38.5317 174.25 38.3517C172.25 38.1717 170.31 41.1617 169.97 45.0317C169.63 48.9017 170.97 52.1917 172.97 52.3717C174.97 52.5517 176.9 49.5617 177.25 45.6917Z" fill="#221F1F"/>
<path d="M177.13 45.6917C177.48 41.8117 176.13 38.5317 174.13 38.3517C172.13 38.1717 170.2 41.1617 169.85 45.0317C169.5 48.9017 170.85 52.1917 172.85 52.3717C174.85 52.5517 176.79 49.5617 177.13 45.6917Z" fill="#221F1F"/>
<path d="M181.67 41.3318C182.53 34.5918 179.67 28.6718 175.32 28.1218C170.97 27.5718 166.72 32.5818 165.86 39.3218C165 46.0618 167.86 51.9818 172.21 52.5418C176.56 53.1018 180.81 48.0318 181.67 41.3318Z" fill="white" stroke="#221F1F" stroke-width="3" stroke-linecap="round" stroke-linejoin="round"/>
<path d="M177.87 45.2618C178.22 41.3918 176.87 38.1018 174.87 37.9218C172.87 37.7418 170.93 40.7318 170.58 44.6018C170.23 48.4718 171.58 51.7618 173.58 51.9418C175.58 52.1218 177.52 49.1318 177.87 45.2618Z" fill="#221F1F"/>
<path d="M177.92 23.1519C191.47 28.1019 198.39 48.1519 197 63.5919C199 62.5919 200.49 59.5919 201.29 56.0419C201.29 46.9619 201.29 33.3219 181.82 18.4019" fill="#A7A9AC"/>
<path d="M177.92 23.1519C191.47 28.1019 198.39 48.1519 197 63.5919C199 62.5919 200.49 59.5919 201.29 56.0419C201.29 46.9619 201.29 33.3219 181.82 18.4019" stroke="#58595B" stroke-width="3" stroke-linecap="round" stroke-linejoin="round"/>
<path d="M174.22 164.202C172.56 161.452 164.22 153.532 163.95 153.792C157.95 157.632 134.29 193.992 143.63 235.002C145.545 242.639 147.851 250.172 150.54 257.572C167.02 259.382 206.4 269.162 219.29 253.572C222.45 249.732 230.29 235.572 230.29 212.152C230.29 200.152 228.89 188.522 226.2 183.682C223.51 178.842 210.2 183.162 196.51 180.422C184.89 178.062 174.22 164.202 174.22 164.202Z" fill="#B5E2EB" stroke="#006469" stroke-width="3" stroke-linecap="round" stroke-linejoin="round"/>
<path d="M174.22 25.7118C180.814 25.7118 186.16 20.3661 186.16 13.7718C186.16 7.17751 180.814 1.83179 174.22 1.83179C167.626 1.83179 162.28 7.17751 162.28 13.7718C162.28 20.3661 167.626 25.7118 174.22 25.7118Z" fill="#D1D3D4" stroke="#58595B" stroke-width="3" stroke-linecap="round" stroke-linejoin="round"/>
<path d="M174.467 13.3883C174.587 12.5576 174.069 11.7947 173.31 11.6844C172.55 11.5741 171.836 12.1582 171.716 12.9889C171.595 13.8197 172.113 14.5826 172.873 14.6929C173.633 14.8031 174.346 14.2191 174.467 13.3883Z" fill="#6D6E71"/>
<path d="M197.92 254.612C193.39 255.212 188.97 241.732 188.97 241.732L204.13 233.612" fill="#008DA3"/>
<path d="M197.92 254.612C193.39 255.212 188.97 241.732 188.97 241.732L204.13 233.612" stroke="#006469" stroke-width="3" stroke-linecap="round" stroke-linejoin="round"/>
<path d="M178.43 181.252L131.414 196.594L151.161 257.109L198.177 241.767L178.43 181.252Z" fill="#A97C50" stroke="#754C29" stroke-width="2.9979" stroke-linecap="round" stroke-linejoin="round"/>
<path d="M146 251.272C145.28 253.992 147.38 257.572 153.58 257.572C159.78 257.572 188.46 254.662 207.18 236.042L210.3 218.042" fill="white"/>
<path d="M146 251.272C145.28 253.992 147.38 257.572 153.58 257.572C159.78 257.572 188.46 254.662 207.18 236.042L210.3 218.042" stroke="#221F1F" stroke-width="3" stroke-linecap="round" stroke-linejoin="round"/>
<path d="M142 243.772C138.65 245.522 136.57 250.602 146.93 251.362C157.29 252.122 172.17 248.042 177.45 244.712" fill="white"/>
<path d="M142.68 245.052C142.065 245.398 141.541 245.884 141.15 246.472C141.007 246.645 140.911 246.852 140.873 247.073C140.834 247.294 140.854 247.521 140.93 247.732C141.254 248.192 141.711 248.541 142.24 248.732C142.599 248.903 142.974 249.037 143.36 249.132L143.96 249.302L144.59 249.422C146.365 249.709 148.162 249.842 149.96 249.822C151.807 249.813 153.653 249.709 155.49 249.512C159.192 249.09 162.865 248.446 166.49 247.582C168.32 247.172 170.12 246.682 171.91 246.132C173.687 245.603 175.419 244.934 177.09 244.132C177.165 244.093 177.247 244.069 177.332 244.063C177.416 244.056 177.501 244.067 177.582 244.094C177.662 244.121 177.736 244.164 177.799 244.22C177.862 244.277 177.914 244.345 177.95 244.422C178.017 244.559 178.034 244.715 177.997 244.863C177.961 245.011 177.873 245.142 177.75 245.232C174.476 247.367 170.904 249.005 167.15 250.092C163.444 251.253 159.643 252.083 155.79 252.572C153.846 252.824 151.89 252.971 149.93 253.012C147.919 253.084 145.907 252.933 143.93 252.562L143.17 252.412L142.39 252.192C141.854 252.046 141.332 251.852 140.83 251.612C140.558 251.495 140.297 251.355 140.05 251.192C139.772 251.036 139.51 250.851 139.27 250.642C138.713 250.182 138.274 249.596 137.99 248.932C137.837 248.57 137.745 248.184 137.72 247.792C137.654 247.415 137.654 247.029 137.72 246.652C137.863 245.983 138.135 245.348 138.52 244.782C139.213 243.793 140.15 243.001 141.24 242.482C141.572 242.333 141.948 242.316 142.292 242.433C142.637 242.551 142.924 242.794 143.096 243.115C143.268 243.435 143.313 243.809 143.221 244.161C143.129 244.513 142.907 244.817 142.6 245.012L142.68 245.052Z" fill="#221F1F"/>
<path d="M173.89 236.852C168.99 239.852 154.32 246.192 144.5 244.392C134.68 242.592 138.37 236.152 141.5 235.472C146.26 234.472 157.81 231.472 161.2 229.742C164.59 228.012 169.52 226.682 156.34 222.162C143.16 217.642 150.69 211.432 153.53 212.082C156.37 212.732 169.9 214.442 175.53 215.902C181.16 217.362 187.4 211.432 193.95 208.042L208.95 222.432L207.04 239.022" fill="white"/>
<path d="M174.17 237.332C171.79 239.152 169.197 240.676 166.45 241.872C163.721 243.119 160.886 244.123 157.98 244.872C155.039 245.657 152.021 246.119 148.98 246.252C148.21 246.312 147.42 246.252 146.65 246.252C145.88 246.252 145.07 246.082 144.29 245.992C142.659 245.727 141.082 245.201 139.62 244.432C139.23 244.188 138.853 243.924 138.49 243.642C138.127 243.307 137.792 242.943 137.49 242.552C136.875 241.656 136.556 240.589 136.58 239.502C136.67 238.48 137.014 237.497 137.58 236.642C138.124 235.839 138.829 235.158 139.65 234.642L140.33 234.282C140.58 234.182 140.84 234.102 141.11 234.022C141.55 233.902 141.83 233.852 142.2 233.762L144.32 233.252L148.54 232.162C151.35 231.402 154.15 230.602 156.88 229.702C158.205 229.289 159.498 228.781 160.75 228.182C161.44 227.842 162.1 227.552 162.65 227.242C162.886 227.119 163.11 226.975 163.32 226.812C163.49 226.702 163.46 226.602 163.32 226.902C163.288 227.04 163.288 227.184 163.32 227.322C163.32 227.402 163.37 227.392 163.32 227.322C163.175 227.169 163.014 227.031 162.84 226.912C162.319 226.55 161.767 226.235 161.19 225.972C159.96 225.382 158.64 224.852 157.29 224.362C155.94 223.872 154.49 223.412 153.06 222.742C151.515 222.085 150.102 221.153 148.89 219.992C148.166 219.279 147.628 218.4 147.32 217.432C146.995 216.334 147.073 215.157 147.54 214.112C147.972 213.191 148.621 212.388 149.43 211.772C150.207 211.161 151.108 210.727 152.07 210.502C152.669 210.369 153.291 210.369 153.89 210.502L154.89 210.702L157.02 211.062L161.36 211.732C164.26 212.172 167.16 212.642 170.07 213.172C171.53 213.442 172.98 213.712 174.45 214.042C175.664 214.457 176.951 214.621 178.23 214.522C180.66 214.222 183.23 212.822 185.61 211.342C187.99 209.862 190.55 208.192 193.27 206.802C193.529 206.653 193.828 206.591 194.124 206.623C194.421 206.656 194.699 206.781 194.92 206.982L195 207.062C196.29 208.222 197.56 209.392 198.81 210.592C200.06 211.792 201.31 212.982 202.53 214.212C204.99 216.652 207.43 219.102 209.82 221.602L209.89 221.682C210.017 221.812 210.112 221.971 210.167 222.144C210.223 222.318 210.238 222.502 210.21 222.682C209.8 225.442 209.38 228.192 208.9 230.942C208.42 233.692 207.97 236.432 207.44 239.172C207.428 239.283 207.372 239.385 207.285 239.456C207.198 239.526 207.086 239.559 206.975 239.547C206.864 239.535 206.762 239.479 206.691 239.392C206.621 239.305 206.588 239.193 206.6 239.082C206.713 236.295 206.863 233.508 207.05 230.722C207.21 227.942 207.42 225.162 207.65 222.392L208.04 223.462C205.44 221.172 202.9 218.822 200.36 216.462C199.08 215.302 197.86 214.072 196.6 212.882C195.34 211.692 194.13 210.462 192.92 209.222L194.65 209.472C192.17 210.802 189.79 212.472 187.27 214.042C185.98 214.862 184.644 215.61 183.27 216.282C181.801 217.01 180.23 217.509 178.61 217.762C177.735 217.892 176.845 217.892 175.97 217.762C174.97 217.612 174.45 217.442 173.72 217.292C172.33 216.992 170.9 216.742 169.47 216.492C166.61 216.002 163.72 215.572 160.82 215.132L156.47 214.462L154.26 214.092L153.13 213.872C153.011 213.846 152.889 213.846 152.77 213.872C152.318 213.988 151.894 214.196 151.526 214.483C151.157 214.771 150.852 215.131 150.63 215.542C150.475 215.853 150.45 216.212 150.56 216.542C150.718 216.97 150.971 217.356 151.3 217.672C152.226 218.517 153.292 219.194 154.45 219.672C155.68 220.242 156.98 220.672 158.45 221.182C159.885 221.691 161.294 222.271 162.67 222.922C163.422 223.277 164.144 223.692 164.83 224.162C165.259 224.439 165.646 224.776 165.98 225.162C166.228 225.457 166.418 225.796 166.54 226.162C166.711 226.64 166.745 227.155 166.64 227.652C166.443 228.383 166.002 229.026 165.39 229.472C165.022 229.763 164.627 230.017 164.21 230.232C163.48 230.622 162.79 230.922 162.21 231.232C160.81 231.881 159.366 232.432 157.89 232.882C155.04 233.792 152.2 234.582 149.34 235.322L145 236.332L142.84 236.832C142.5 236.912 142.06 236.992 141.84 237.072L141.57 237.152L141.28 237.312C140.86 237.571 140.497 237.911 140.21 238.312C139.965 238.689 139.808 239.116 139.75 239.562C139.748 239.947 139.863 240.324 140.08 240.642C140.223 240.827 140.38 241.001 140.55 241.162C140.78 241.312 140.97 241.492 141.22 241.632C142.358 242.227 143.583 242.638 144.85 242.852C145.52 242.922 146.17 243.062 146.85 243.092C147.536 243.127 148.224 243.127 148.91 243.092C151.729 242.993 154.529 242.588 157.26 241.882C160.03 241.192 162.77 240.342 165.5 239.412C168.23 238.482 170.94 237.462 173.6 236.342C173.666 236.313 173.736 236.297 173.808 236.296C173.88 236.294 173.951 236.308 174.017 236.335C174.084 236.362 174.144 236.402 174.194 236.453C174.244 236.504 174.284 236.565 174.31 236.632C174.38 236.744 174.405 236.88 174.379 237.01C174.353 237.14 174.278 237.255 174.17 237.332Z" fill="#221F1F"/>
<path d="M163 172.672C163.98 170.824 165.316 169.187 166.931 167.857C168.545 166.526 170.406 165.528 172.408 164.918C174.409 164.309 176.511 164.1 178.593 164.305C180.675 164.51 182.696 165.124 184.54 166.112C191.89 170.232 215.42 186.882 222.81 191.532C230.2 196.182 227.21 232.682 197.91 254.612C200.32 234.922 186.66 211.942 186.66 211.942C194.93 207.472 202.66 205.142 200.12 190.102" fill="#B5E2EB"/>
<path d="M162.32 172.332C163.604 169.354 165.786 166.851 168.56 165.172C169.953 164.313 171.471 163.675 173.06 163.282C173.853 163.081 174.658 162.931 175.47 162.832C176.288 162.757 177.11 162.737 177.93 162.772C179.582 162.831 181.214 163.145 182.77 163.702C183.15 163.852 183.55 163.962 183.93 164.142L185.04 164.692C185.76 165.062 186.39 165.462 187.04 165.852C189.65 167.432 192.17 169.082 194.69 170.732C199.69 174.052 204.69 177.432 209.69 180.802L217.15 185.802L220.88 188.292L222.76 189.512L223.69 190.102C224.118 190.392 224.514 190.727 224.87 191.102C226.014 192.474 226.807 194.104 227.18 195.852C227.562 197.416 227.789 199.013 227.86 200.622C227.987 203.743 227.796 206.869 227.29 209.952C226.276 216.034 224.443 221.951 221.84 227.542C216.64 238.726 208.735 248.439 198.84 255.802C198.688 255.923 198.513 256.013 198.325 256.067C198.138 256.12 197.941 256.136 197.748 256.112C197.554 256.089 197.367 256.028 197.198 255.931C197.028 255.835 196.879 255.706 196.76 255.552C196.641 255.404 196.553 255.235 196.499 255.053C196.446 254.871 196.429 254.68 196.45 254.492V254.422C196.802 250.828 196.758 247.206 196.32 243.622C195.811 240.005 195.042 236.429 194.02 232.922C192.951 229.403 191.693 225.945 190.25 222.562C188.823 219.185 187.204 215.893 185.4 212.702C185.202 212.373 185.14 211.98 185.228 211.606C185.315 211.232 185.546 210.908 185.87 210.702L185.97 210.632C190.07 208.072 194.48 206.292 196.97 202.972C198.202 201.235 198.988 199.223 199.26 197.112C199.529 194.826 199.606 192.521 199.49 190.222C199.483 190.051 199.54 189.883 199.65 189.752C199.76 189.621 199.914 189.535 200.084 189.511C200.254 189.487 200.426 189.528 200.567 189.624C200.709 189.72 200.81 189.865 200.85 190.032C201.534 192.414 201.87 194.883 201.85 197.362C201.829 200.022 201.063 202.624 199.64 204.872C198.123 207.014 196.145 208.788 193.85 210.062C191.76 211.257 189.607 212.338 187.4 213.302L187.98 211.222C189.842 214.529 191.511 217.942 192.98 221.442C194.47 224.927 195.766 228.493 196.86 232.122C197.931 235.782 198.734 239.515 199.26 243.292C199.737 247.125 199.784 250.999 199.4 254.842L197 253.412C206.4 246.267 213.889 236.91 218.8 226.172C221.28 220.855 223.03 215.228 224 209.442C224.47 206.591 224.647 203.699 224.53 200.812C224.469 199.419 224.271 198.036 223.94 196.682C223.693 195.48 223.173 194.351 222.42 193.382C222.26 193.162 222.09 193.112 221.9 192.922L220.9 192.302L219 191.052L215.25 188.522L207.81 183.432C202.81 180.032 197.92 176.622 192.94 173.292C190.45 171.632 187.94 169.972 185.43 168.422C184.81 168.052 184.17 167.652 183.55 167.332L182.65 166.882C182.35 166.732 182.02 166.642 181.71 166.512C180.427 166.04 179.076 165.776 177.71 165.732C177.044 165.693 176.376 165.693 175.71 165.732C175.037 165.797 174.369 165.908 173.71 166.062C173.034 166.213 172.366 166.4 171.71 166.622C168.421 167.856 165.602 170.091 163.65 173.012C163.551 173.193 163.383 173.328 163.184 173.386C162.985 173.444 162.772 173.421 162.59 173.322C162.408 173.222 162.274 173.055 162.215 172.856C162.157 172.657 162.181 172.443 162.28 172.262L162.32 172.332Z" fill="#006469"/>
<path d="M139.29 184.442C113.97 202.632 93.0899 204.152 80.5899 196.442C59.5899 183.522 54.2999 150.292 53.8799 129.742" stroke="#58595B" stroke-width="4" stroke-linecap="round" stroke-linejoin="round"/>
<path d="M166.18 155.512C162.04 160.632 157.873 165.715 153.68 170.762L147.34 178.332C145.2 180.842 143.06 183.332 140.77 185.792C140.412 186.175 139.918 186.402 139.395 186.424C138.871 186.447 138.359 186.263 137.97 185.912C137.758 185.715 137.59 185.475 137.48 185.207C137.369 184.94 137.318 184.651 137.33 184.362L137.65 176.812C137.78 174.272 137.95 171.712 138.31 169.132C138.659 166.528 139.265 163.966 140.12 161.482C141.009 159.026 142.127 156.658 143.46 154.412C143.651 154.126 143.942 153.923 144.275 153.842C144.609 153.76 144.961 153.807 145.262 153.973C145.562 154.139 145.79 154.412 145.899 154.738C146.008 155.064 145.99 155.418 145.85 155.732C144.699 157.868 143.751 160.108 143.02 162.422C142.33 164.737 141.874 167.116 141.66 169.522C141.21 174.362 141.37 179.402 141.34 184.452L137.85 183.062C139.93 180.632 141.96 178.062 143.98 175.492L149.98 167.722C153.98 162.522 157.917 157.292 161.79 152.032C162.002 151.713 162.276 151.44 162.597 151.231C162.918 151.021 163.277 150.879 163.655 150.814C164.032 150.748 164.419 150.76 164.791 150.848C165.164 150.937 165.514 151.1 165.822 151.329C166.129 151.557 166.387 151.846 166.579 152.177C166.771 152.508 166.894 152.875 166.939 153.255C166.985 153.635 166.953 154.021 166.845 154.388C166.736 154.756 166.554 155.097 166.31 155.392L166.18 155.512Z" fill="#58595B"/>
<path d="M45.22 163.272C45.382 160.232 46.1041 157.249 47.35 154.472C48.47 151.702 49.83 149.072 50.97 146.472C51.5466 145.256 51.9795 143.978 52.26 142.662C52.3586 142.123 52.3586 141.571 52.26 141.032C52.1833 140.604 51.9774 140.209 51.67 139.902L51.41 139.672L51.14 139.492C50.9973 139.416 50.841 139.368 50.68 139.352C50.1838 139.336 49.6897 139.424 49.23 139.612C48.0335 140.117 46.9155 140.79 45.91 141.612C43.7321 143.406 41.7419 145.416 39.97 147.612C39.07 148.712 38.21 149.842 37.43 151.002C37.0615 151.547 36.7275 152.115 36.43 152.702C36.1 153.402 35.74 154.042 35.43 154.702C34.0266 157.093 32.9726 159.672 32.3 162.362C32.1853 162.978 32.1384 163.605 32.16 164.232C32.2006 164.8 32.3358 165.358 32.56 165.882C33.05 166.989 33.7265 168.004 34.56 168.882C34.627 168.957 34.6784 169.045 34.7111 169.14C34.7439 169.235 34.7574 169.336 34.7509 169.436C34.7444 169.537 34.718 169.635 34.6732 169.725C34.6284 169.815 34.5661 169.896 34.49 169.962C34.4067 170.033 34.3093 170.086 34.2042 170.117C34.0991 170.148 33.9886 170.156 33.88 170.142C33.0196 170.009 32.2053 169.666 31.51 169.142C30.7782 168.58 30.2032 167.84 29.84 166.992C29.4952 166.166 29.2956 165.286 29.25 164.392C29.1892 163.551 29.2193 162.706 29.34 161.872C29.9671 158.87 31.0675 155.988 32.6 153.332L33.6 151.412C33.9608 150.693 34.3684 149.998 34.82 149.332C35.68 148.062 36.61 146.862 37.57 145.702C39.4885 143.33 41.6429 141.159 44 139.222C45.2615 138.188 46.6704 137.349 48.18 136.732C49.0892 136.377 50.0672 136.233 51.04 136.312C51.6094 136.375 52.1604 136.552 52.66 136.832C53.1007 137.085 53.5045 137.398 53.86 137.762C54.5928 138.502 55.0843 139.447 55.27 140.472C55.4415 141.377 55.4415 142.307 55.27 143.212C54.944 144.764 54.4337 146.271 53.75 147.702C51.22 153.182 47.9 157.902 46.47 163.422C46.432 163.568 46.3418 163.695 46.2164 163.78C46.0911 163.864 45.9392 163.9 45.7894 163.88C45.6395 163.861 45.502 163.787 45.4027 163.673C45.3034 163.559 45.2491 163.413 45.25 163.262L45.22 163.272Z" fill="#221F1F"/>
<path d="M33.34 102.182L18.5 87.8318" stroke="#221F1F" stroke-width="3" stroke-linecap="round" stroke-linejoin="round"/>
<path d="M45.84 96.6218L42.72 79.0518" stroke="#221F1F" stroke-width="3" stroke-linecap="round" stroke-linejoin="round"/>
<path d="M62.73 100.292L65.71 85.3118" stroke="#221F1F" stroke-width="3" stroke-linecap="round" stroke-linejoin="round"/>
<defs>
<linearGradient id="paint0_linear" x1="124.656" y1="12.3367" x2="124.656" y2="247.941" gradientUnits="userSpaceOnUse">
<stop stop-color="#FF4444"/>
<stop offset="1" stop-color="#FF4444" stop-opacity="0"/>
</linearGradient>
</defs>
</svg>
