<svg width="277" height="306" viewBox="0 0 277 306" fill="none" xmlns="http://www.w3.org/2000/svg">
<path d="M153.422 3.8881C224.988 5.67069 273.893 91.8659 272.024 166.899C270.155 241.931 166.52 292.176 94.9539 290.393C23.388 288.611 1.38598 246.42 3.25492 171.387C5.12386 96.3543 81.8558 2.10551 153.422 3.8881Z" fill="#F77A10" fill-opacity="0.4"/>
<path d="M153.422 3.8881C224.988 5.67069 273.893 91.8659 272.024 166.899C270.155 241.931 166.52 292.176 94.9539 290.393C23.388 288.611 1.38598 246.42 3.25492 171.387C5.12386 96.3543 81.8558 2.10551 153.422 3.8881Z" fill="url(#paint0_linear)" fill-opacity="0.4"/>
<path d="M149.209 181.776C142.579 189.9 140.485 194.789 136.766 197.848C136.609 197.9 136.422 198.002 136.264 198.053L135.12 198.551C135.123 198.56 135.131 198.568 135.14 198.573C135.15 198.578 135.16 198.579 135.171 198.576C135.132 198.576 135.132 198.576 135.077 198.576C133.613 199.176 132.098 199.704 130.549 200.197C126.156 201.592 121.632 202.537 117.048 203.019C111.585 203.087 106.13 202.583 100.771 201.516C88.4015 199.159 76.0912 194.129 67.5808 187.708C67.1893 187.44 66.8276 187.121 66.4233 186.815L65.1468 185.738L64.9 185.513L64.4319 185.138L64.1979 184.951L63.7723 184.564C61.9691 185.824 59.9227 186.693 57.764 187.117C50.3003 188.674 42.0835 184.338 42.7005 176.615C35.8921 175.389 32.1476 170.283 33.5688 163.696C27.3562 160.458 24.8158 154.007 28.7264 149.36C32.3858 145.016 38.3687 144.679 44.4707 145.284C50.2195 145.841 56.1129 147.262 60.4277 147.016C53.0492 142.718 47.7216 137.892 44.0622 132.973C30.6412 114.94 39.9431 95.3019 54.3002 92.8467C52.943 96.5677 52.3286 100.519 52.4917 104.476C53.3513 129.91 81.1634 161.794 110.665 174.823L115.856 176.909C115.908 176.905 115.959 176.92 116.001 176.951L124.162 179.347C126.341 179.861 128.552 180.231 130.779 180.453L127.179 180.211L127.605 180.334L131.009 180.466L131.507 180.525L134.979 180.764L136.63 180.887L137.43 180.938L138.188 181.002L149.209 181.776Z" fill="white"/>
<path d="M137.311 181.313C137.223 181.195 137.112 181.096 136.985 181.023C136.858 180.95 136.717 180.904 136.571 180.887L136.52 180.862L134.873 180.606C132.715 180.253 130.584 179.845 128.413 179.33C125.745 178.747 123.094 177.938 120.456 177.172C117.831 176.321 115.235 175.402 112.72 174.338C110.205 173.275 107.703 172.113 105.227 170.904C102.818 169.628 100.397 168.313 98.0567 166.845C95.7163 165.377 93.4824 163.824 91.2484 162.236C89.0654 160.585 86.9123 158.879 84.8655 157.058L83.3379 155.675L81.8486 154.279C80.8529 153.335 79.8784 152.339 78.921 151.386C77.9636 150.433 77.07 149.411 76.1253 148.36C75.1807 147.309 74.3041 146.33 73.4786 145.245L72.202 143.658C71.7765 143.143 71.3765 142.573 70.9765 142.003C70.151 140.918 69.3638 139.82 68.5681 138.684C67.7723 137.548 67.049 136.386 66.3298 135.22C65.6107 134.054 64.8916 132.897 64.249 131.71C62.9299 129.348 61.6363 126.931 60.4874 124.429C60.1938 123.782 59.8747 123.191 59.6364 122.569L58.7513 120.697C58.2279 119.472 57.7598 118.144 57.2279 116.867C56.2908 114.365 55.5691 111.787 55.0705 109.161C54.5835 106.544 54.3752 103.882 54.4493 101.221C54.4493 101.127 54.4493 101.089 54.4493 101C54.5343 98.4556 54.9637 95.9349 55.7258 93.5062V93.4679C55.7924 93.2213 55.814 92.9648 55.7896 92.7105C55.7549 92.5041 55.6792 92.3068 55.5669 92.1301C55.4546 91.9535 55.308 91.8012 55.1358 91.6822C54.9637 91.5632 54.7694 91.4799 54.5645 91.4373C54.3596 91.3946 54.1482 91.3935 53.9429 91.4339C50.7595 92.0233 47.7732 93.3965 45.2537 95.4296C42.7873 97.4423 40.788 99.9673 39.3943 102.829C38.0203 105.635 37.1901 108.676 36.9475 111.791C36.6845 114.855 36.9071 117.941 37.6071 120.935C38.3176 123.909 39.4103 126.778 40.8581 129.471C41.7386 131.1 42.734 132.664 43.8367 134.152C44.5346 135.105 45.2537 136.003 46.0197 136.892C47.9942 139.156 50.1611 141.245 52.4961 143.135C53.6663 144.067 54.8705 144.986 56.0918 145.816C56.3769 146.028 56.6492 146.203 56.9428 146.377C56.4067 146.33 55.9088 146.271 55.3726 146.228C53.6961 146.024 52.011 145.782 50.2664 145.509C48.2622 145.237 46.2494 144.922 44.2197 144.701C42.7675 144.538 41.3065 144.467 39.8453 144.488C38.0355 144.463 36.2302 144.675 34.4753 145.118C32.6647 145.558 30.9698 146.383 29.5052 147.535C28.7626 148.116 28.0913 148.783 27.5052 149.522L27.5818 149.76L27.3818 150.084C27.2371 150.293 27.1036 150.511 26.9818 150.735C26.7512 151.156 26.5603 151.597 26.4116 152.054C25.8259 153.903 25.8663 155.894 26.5265 157.717C27.1631 159.483 28.2086 161.072 29.5775 162.356C30.2389 162.98 30.9505 163.55 31.7051 164.058C32.0413 164.296 32.42 164.526 32.7987 164.751C32.7689 164.934 32.7136 165.177 32.7008 165.394C32.6297 165.88 32.597 166.371 32.603 166.862C32.5676 167.853 32.6794 168.844 32.9349 169.802C33.4146 171.768 34.4694 173.546 35.9646 174.909C37.4414 176.261 39.2175 177.243 41.1474 177.777C41.4368 177.857 41.7219 177.942 42.0495 178.011C42.0247 179.36 42.2752 180.701 42.7857 181.951C43.4515 183.545 44.5116 184.943 45.8665 186.015C48.5539 188.121 51.8915 189.223 55.3046 189.134C55.7301 189.134 56.1556 189.134 56.5811 189.07C57.0066 189.006 57.5002 188.951 57.8577 188.929C58.6786 188.79 59.4879 188.59 60.2789 188.329C61.5337 187.941 62.7347 187.397 63.8533 186.708L64.1043 186.542C64.3217 186.422 64.5257 186.28 64.7128 186.117L65.032 185.883L65.2447 185.73L65.3128 185.666L65.8022 185.291L66.0149 185.138L66.2277 184.985C66.4174 184.805 66.5964 184.615 66.7639 184.415C67.3777 183.744 67.8663 182.969 68.2064 182.125C68.5479 181.275 68.7754 180.384 68.8829 179.474C68.9269 178.568 68.8278 177.661 68.5893 176.785L68.551 176.666C68.4652 176.392 68.2806 176.159 68.033 176.012C67.7854 175.866 67.4924 175.817 67.2106 175.874C66.5553 175.998 65.8575 176.134 65.1894 176.215C64.4927 176.29 63.7923 176.326 63.0916 176.321C62.398 176.321 61.6874 176.291 60.964 176.257C60.2665 176.213 59.5718 176.13 58.8832 176.011L58.8321 175.985C58.6359 175.956 58.4356 176 58.2698 176.109C58.1041 176.218 57.9846 176.385 57.9343 176.577C57.9063 176.676 57.899 176.78 57.9126 176.883C57.9262 176.985 57.9605 177.084 58.0134 177.173C58.0664 177.261 58.1369 177.338 58.2205 177.399C58.3042 177.46 58.3994 177.503 58.5002 177.525C59.2349 177.724 59.9809 177.877 60.7342 177.985C61.479 178.11 62.2307 178.19 62.9852 178.223C63.7437 178.288 64.5053 178.306 65.266 178.279C65.6074 178.277 65.9484 178.256 66.2873 178.215C66.2952 179.156 66.087 180.086 65.6788 180.934C65.0959 182.062 64.2635 183.043 63.2448 183.802C63.2193 183.853 63.1384 183.879 63.1129 183.93C61.9857 184.778 60.7242 185.431 59.3811 185.861C58.6955 186.08 57.9979 186.259 57.2917 186.398C56.9502 186.477 56.6031 186.529 56.2535 186.555L55.1897 186.632C53.7553 186.698 52.3193 186.539 50.9344 186.159C49.5583 185.806 48.2656 185.184 47.1303 184.33C46.0019 183.503 45.0777 182.428 44.4282 181.189C44.0097 180.293 43.7464 179.331 43.6495 178.347C44.74 178.491 45.8389 178.562 46.9388 178.559C47.9217 178.504 48.8664 178.466 49.8664 178.321C50.1557 178.274 50.3642 178.249 50.577 178.223L51.3132 178.074L52.794 177.734C54.1861 177.344 55.5294 176.797 56.7981 176.104C57.2974 175.82 57.7791 175.506 58.2407 175.164C59.0892 174.547 59.8519 173.82 60.5087 173.002C61.1572 172.149 61.6604 171.194 61.998 170.177C62.3135 169.161 62.4574 168.1 62.4235 167.036C62.3901 166.014 62.2125 165.001 61.8959 164.028V163.99C61.8411 163.746 61.7069 163.528 61.5142 163.369C61.3216 163.21 61.0816 163.12 60.8321 163.113L55.3471 162.9C56.6318 161.68 57.6114 160.174 58.2066 158.505C58.815 156.676 58.9827 154.73 58.696 152.824V152.786C58.6383 152.443 58.453 152.136 58.1773 151.925C57.9017 151.714 57.5563 151.616 57.2109 151.65L56.1216 151.781L55.0195 151.871C54.2961 151.926 53.5386 151.998 52.8025 152.015C51.3472 152.088 49.8238 152.096 48.3728 152.041C47.5218 152.003 46.6707 151.926 45.8197 151.854C45.1899 151.794 44.5431 151.735 43.9601 151.62C42.5135 151.404 41.0892 151.058 39.7049 150.586C39.5554 150.522 39.3873 150.519 39.2353 150.576C39.0833 150.633 38.959 150.746 38.8879 150.892C38.8493 150.968 38.8269 151.052 38.8222 151.137C38.8175 151.222 38.8305 151.308 38.8605 151.388C38.8905 151.468 38.9368 151.541 38.9965 151.602C39.0561 151.663 39.1278 151.711 39.2071 151.743C40.6292 152.398 42.117 152.9 43.6453 153.241C44.5346 153.437 45.4239 153.628 46.2877 153.747C46.9303 153.845 47.5643 153.947 48.2366 153.994C49.7685 154.156 51.3259 154.266 52.8706 154.339C53.6195 154.36 54.4024 154.373 55.1897 154.381H56.1471C56.1874 155.464 56.0318 156.545 55.6875 157.573C55.2008 158.984 54.3855 160.258 53.3089 161.292C52.2767 162.25 51.0841 163.019 49.7855 163.564C48.171 164.258 46.4584 164.698 44.7091 164.866C43.0785 165.054 41.4301 165.026 39.807 164.781C38.2068 164.571 36.6449 164.132 35.1689 163.479C33.7032 162.827 32.3581 161.932 31.1902 160.832C30.0433 159.756 29.1583 158.431 28.6031 156.96C28.0976 155.538 28.0751 153.988 28.5392 152.552C28.652 152.189 28.7944 151.836 28.9648 151.496C29.0449 151.329 29.1389 151.168 29.2456 151.015L29.3903 150.798L29.6158 150.552C30.0839 149.915 30.6333 149.343 31.2498 148.85C32.4928 147.848 33.9483 147.144 35.505 146.79C37.0976 146.399 38.7333 146.212 40.373 146.233C41.883 146.224 43.3922 146.308 44.892 146.484C46.7388 146.675 48.6068 146.947 50.4238 147.233C52.1259 147.518 53.828 147.799 55.5811 147.977C57.3429 148.223 59.1219 148.324 60.9002 148.279C61.0301 148.274 61.1576 148.243 61.2752 148.187C61.3928 148.132 61.4981 148.053 61.5849 147.957C61.6718 147.86 61.7384 147.747 61.7808 147.624C61.8233 147.501 61.8407 147.371 61.8321 147.241C61.8156 147.068 61.7594 146.901 61.6679 146.754C61.5764 146.606 61.452 146.482 61.3044 146.39C60.0576 145.616 58.9257 144.799 57.7556 143.999C56.5854 143.199 55.4577 142.254 54.3514 141.348C52.1608 139.499 50.1296 137.469 48.2792 135.28C46.9166 133.619 45.6724 131.864 44.5559 130.029C44.1814 129.407 43.8623 128.816 43.5304 128.182C42.2403 125.661 41.2697 122.99 40.6411 120.229C40.0485 117.494 39.8849 114.683 40.156 111.897C40.4495 109.141 41.2456 106.461 42.5049 103.991C43.7279 101.546 45.4706 99.3982 47.6111 97.6976C49.0571 96.5839 50.6756 95.7143 52.4025 95.1232C52.2813 95.6413 52.1876 96.1654 52.1216 96.6934C51.8787 98.1307 51.7465 99.5846 51.7259 101.042C51.6745 102.665 51.7285 104.29 51.8876 105.906C51.988 107.165 52.1699 108.415 52.4323 109.651C52.9502 112.471 53.7324 115.236 54.7684 117.91C55.3173 119.216 55.7216 120.463 56.3173 121.808L57.1683 123.757C57.4619 124.403 57.7939 125.033 58.0492 125.693C59.2108 128.246 60.5683 130.718 61.9555 133.148C62.6491 134.361 63.4193 135.552 64.1511 136.752C64.883 137.952 65.6532 139.143 66.4915 140.267C67.3298 141.39 68.0872 142.543 68.9808 143.692C69.4063 144.25 69.8319 144.816 70.2574 145.373L71.6148 147.028C72.4914 148.139 73.4616 149.156 74.3807 150.237C75.2998 151.318 76.3083 152.318 77.2785 153.313C78.2487 154.309 79.2699 155.33 80.3082 156.262L81.8614 157.722L83.4443 159.13C85.5719 160.977 87.7633 162.709 90.0399 164.377C92.3164 166.045 94.6398 167.607 97.061 169.058C99.4822 170.509 101.929 171.896 104.427 173.185C106.925 174.474 109.482 175.662 112.116 176.687C114.75 177.713 117.363 178.666 120.077 179.538C122.792 180.411 125.499 181.113 128.256 181.713C130.698 182.279 133.196 182.742 135.711 183.117C136.006 183.15 136.299 183.201 136.588 183.27C136.75 183.299 136.917 183.292 137.076 183.249C137.235 183.205 137.382 183.127 137.507 183.019C137.709 182.827 137.856 182.585 137.932 182.317C137.751 181.967 137.543 181.631 137.311 181.313ZM34.2668 165.509C35.8572 166.181 37.5189 166.671 39.2198 166.968C40.9981 167.263 42.8053 167.343 44.6027 167.207C46.4384 167.07 48.2468 166.682 49.977 166.053C50.1728 165.99 50.36 165.887 50.5557 165.824C51.2998 165.538 52.0127 165.178 52.6833 164.747L59.53 165.343C59.5768 165.896 59.6193 166.445 59.6151 166.968C59.5749 167.738 59.4318 168.5 59.1896 169.232C58.6764 170.715 57.7235 172.006 56.4577 172.934C56.0374 173.255 55.5904 173.54 55.1216 173.785C54.1231 174.365 53.055 174.815 51.9429 175.126C51.5472 175.253 51.0919 175.351 50.7047 175.479L50.1004 175.628C49.879 175.651 49.6599 175.692 49.4451 175.751C48.5794 175.885 47.7073 175.974 46.8324 176.019C45.1148 176.118 43.3922 175.95 41.7262 175.521C40.0959 175.137 38.5814 174.368 37.3092 173.279C36.0486 172.208 35.1274 170.793 34.6582 169.207C34.417 168.397 34.2952 167.557 34.2965 166.713C34.2965 166.287 34.3348 165.862 34.3263 165.436L34.2668 165.509Z" fill="#221F1F"/>
<path d="M135.128 198.589C135.09 198.589 135.09 198.589 135.035 198.589C133.571 199.189 132.056 199.716 130.507 200.21C126.115 201.609 121.593 202.558 117.01 203.044C111.008 203.678 104.947 203.462 99.0057 202.401C93.0627 201.367 87.2898 199.521 81.8486 196.916C79.3143 195.704 76.8585 194.334 74.4956 192.814L74.3935 192.759C71.9976 191.224 69.71 189.527 67.5468 187.678C67.1554 187.41 66.7937 187.091 66.3894 186.785L65.1341 185.691L64.9214 185.844L64.6022 186.078C64.3895 186.232 64.2065 186.334 63.9937 186.504C63.9062 186.424 63.8106 186.352 63.7086 186.291C63.4108 186.04 63.1767 185.866 62.9299 185.627L64.1725 184.883L64.3171 184.793L65.0448 184.342C65.1332 184.39 65.2125 184.454 65.2788 184.53C65.4063 184.628 65.5271 184.734 65.6405 184.849C65.7043 184.917 65.8107 184.968 65.8745 185.036C66.2139 185.346 66.5689 185.639 66.9383 185.912C67.4447 186.274 67.9511 186.632 68.5213 187.061C68.9255 187.368 69.3255 187.674 69.7681 187.968C69.9482 188.092 70.1215 188.225 70.2872 188.368C70.9383 188.768 71.6148 189.249 72.3169 189.678C73.7212 190.666 75.3892 191.525 77.053 192.517C77.9253 193.021 78.8261 193.474 79.7508 193.874C80.6742 194.3 81.6146 194.802 82.6061 195.18L85.6188 196.457C86.6485 196.823 87.7208 197.176 88.7889 197.533C89.8599 197.908 90.9492 198.227 92.0526 198.491C93.1505 198.793 94.2611 199.133 95.41 199.342C96.5589 199.55 97.6568 199.84 98.8142 200.04C99.9716 200.24 101.052 200.367 102.189 200.529L103.04 200.644L103.891 200.721C104.427 200.767 105.006 200.801 105.542 200.844C106.657 200.925 107.742 201.057 108.831 201.057C109.92 201.057 110.959 201.057 112.027 201.125C113.095 201.193 114.099 201.074 115.12 201.006C117.112 200.98 118.992 200.725 120.724 200.58L122.001 200.44C122.426 200.355 122.826 200.308 123.197 200.231C123.971 200.07 124.72 199.963 125.431 199.865C126.141 199.767 126.797 199.648 127.414 199.538L129.031 199.15C130.541 198.84 132.29 198.457 133.052 198.257C133.196 198.24 133.338 198.211 133.477 198.172L133.596 198.133C133.734 198.093 133.878 198.077 134.022 198.087C134.411 198.204 134.783 198.373 135.128 198.589Z" fill="#362F28"/>
<path d="M135.527 198.589C135.527 198.627 135.489 198.589 135.489 198.589C134.025 199.189 132.511 199.717 130.962 200.21C126.57 201.609 122.047 202.558 117.464 203.044C111.462 203.678 105.401 203.462 99.4602 202.402C98.3879 202.18 97.3539 201.942 96.3241 201.708C95.1199 201.482 93.9965 201.104 92.8476 200.772C91.6987 200.44 90.5498 200.112 89.4647 199.721C88.3796 199.329 87.2605 198.946 86.2137 198.538C85.167 198.129 84.1415 197.636 83.1245 197.176C82.1228 196.758 81.1441 196.286 80.1926 195.763C79.2437 195.24 78.2905 194.849 77.4182 194.3C76.5459 193.751 75.7544 193.308 74.9587 192.866L74.8566 192.81C74.0509 192.328 73.2836 191.833 72.5545 191.325C71.8268 190.819 71.112 190.351 70.4482 189.908C69.7843 189.466 69.2269 188.951 68.6184 188.534C68.0099 188.117 67.4738 187.683 67.0099 187.308C66.5461 186.934 66.1163 186.551 65.7334 186.245C65.6059 186.146 65.4851 186.04 65.3717 185.925C65.0866 185.713 64.8781 185.474 64.644 185.287L64.8951 185.121L65.0015 185.045L65.7674 184.581L66.7334 184.015C66.8752 184.107 67.0103 184.21 67.1376 184.321C67.2014 184.389 67.3078 184.44 67.3716 184.508C67.7759 184.815 68.2227 185.202 68.6482 185.534C69.0737 185.866 69.6609 186.253 70.1928 186.696C70.7248 187.138 71.3375 187.547 71.946 187.972C72.5545 188.398 73.2736 188.853 73.9757 189.283C75.38 190.27 77.0055 191.142 78.7118 192.121C79.5841 192.625 80.4848 193.078 81.4096 193.478C82.333 193.904 83.2734 194.406 84.2649 194.785L87.2775 196.061C88.3073 196.427 89.3796 196.78 90.4477 197.138C91.5187 197.512 92.608 197.832 93.7114 198.095C94.8093 198.397 95.9199 198.738 97.0688 198.946C98.2177 199.155 99.3156 199.444 100.473 199.644C101.63 199.844 102.711 199.972 103.847 200.134L104.698 200.248L105.549 200.325C106.086 200.372 106.664 200.406 107.2 200.448C108.315 200.529 109.4 200.661 110.49 200.661C111.579 200.661 112.617 200.661 113.685 200.729C114.753 200.797 115.758 200.678 116.779 200.61C118.77 200.585 120.651 200.329 122.383 200.185L123.66 200.044C124.085 199.997 124.485 199.912 124.855 199.836C125.63 199.674 126.379 199.568 127.089 199.47C127.8 199.372 128.455 199.253 129.072 199.142L130.689 198.755C131.502 198.58 132.391 198.385 133.174 198.223C134.276 198.002 135.119 197.776 135.119 197.776L135.238 197.738C135.474 197.683 135.72 197.677 135.958 197.721C136.197 197.765 136.424 197.858 136.625 197.993C136.322 198.29 135.942 198.496 135.527 198.589Z" fill="#221F1F"/>
<path d="M180.707 249.066C180.707 249.066 178.844 267.578 179.269 271.419C179.694 275.26 182.446 275.4 182.616 280.431C182.786 285.463 168.518 285.332 159.428 297.312C156.437 301.254 152.649 301.818 148.87 300.296C145.345 298.873 146.358 295.782 143.846 294.112C141.334 292.443 138.713 293.911 135.854 292.674C132.994 291.438 134.03 288.307 131.216 287.457C128.403 286.607 122.567 286.507 122.714 283.013C122.83 280.199 127.483 277.881 135.931 276.945C144.379 276.01 172.583 277.958 171.81 271.427C171.037 264.896 170.604 245.92 170.604 245.92" fill="#EE8022"/>
<path d="M180.707 249.066C180.707 249.066 178.844 267.578 179.269 271.419C179.694 275.26 182.446 275.4 182.616 280.431C182.786 285.463 168.518 285.332 159.428 297.312C156.437 301.254 152.649 301.818 148.87 300.296C145.345 298.873 146.358 295.782 143.846 294.112C141.334 292.443 138.713 293.911 135.854 292.674C132.994 291.438 134.03 288.307 131.216 287.457C128.403 286.607 122.567 286.507 122.714 283.013C122.83 280.199 127.483 277.881 135.931 276.945C144.379 276.01 172.583 277.958 171.81 271.427C171.037 264.896 170.604 245.92 170.604 245.92" stroke="#221F1F" stroke-width="3.54196" stroke-linecap="round" stroke-linejoin="round"/>
<path d="M146.883 32.0205C147.78 26.355 161.623 19.8933 173.163 25.7134C176.255 28.0322 181.851 22.4208 185.143 25.7134C186.303 26.8728 182.825 30.7375 184.37 31.8968C185.916 33.0562 190.747 31.7036 190.94 34.2156C191.134 36.7276 188.428 38.4667 188.815 41.172C189.201 43.8772 195.555 58.0681 177.932 71.4475C170.458 77.113 155.687 147.967 164.267 163.596C168.518 171.325 181.124 180.894 188.034 184.078C200.919 189.999 207.002 180.824 213.641 177.215C220.984 176.249 211.802 189.682 213.734 190.648C215.666 191.614 220.025 187.185 222.236 188.716C225.784 191.158 219.855 201.276 220.76 206.23C222.136 213.828 214.19 247.968 180.691 251.323C147.193 254.677 117.628 231.149 126.973 197.218C130.644 183.885 142.431 168.62 144.364 161.277C149.001 143.5 153.252 101.375 153.252 101.375" fill="white"/>
<path d="M146.883 32.0205C147.78 26.355 161.623 19.8933 173.163 25.7134C176.255 28.0322 181.851 22.4208 185.143 25.7134C186.303 26.8728 182.825 30.7375 184.37 31.8968C185.916 33.0562 190.747 31.7036 190.94 34.2156C191.134 36.7276 188.428 38.4667 188.815 41.172C189.201 43.8772 195.555 58.0681 177.932 71.4475C170.458 77.113 155.687 147.967 164.267 163.596C168.518 171.325 181.124 180.894 188.034 184.078C200.919 189.999 207.002 180.824 213.641 177.215C220.984 176.249 211.802 189.682 213.734 190.648C215.666 191.614 220.026 187.185 222.236 188.716C225.784 191.158 219.855 201.276 220.76 206.23C222.136 213.828 214.19 247.968 180.691 251.323C147.193 254.677 117.628 231.149 126.973 197.218C130.644 183.885 142.431 168.62 144.364 161.277C149.001 143.5 153.252 101.375 153.252 101.375" stroke="#221F1F" stroke-width="3.54196" stroke-linecap="round" stroke-linejoin="round"/>
<path d="M155.58 44.542C156.268 37.8484 153.478 32.0747 149.342 31.6496C145.207 31.2245 141.296 36.2871 140.608 43.0038C139.92 49.7206 142.711 55.4634 146.846 55.8885C150.981 56.3136 154.915 51.2355 155.58 44.542Z" fill="white" stroke="#221F1F" stroke-width="3.36486" stroke-linecap="round" stroke-linejoin="round"/>
<path d="M64.6445 76.8197C64.7991 78.3656 61.9857 84.3326 73.1931 87.4784C79.2683 89.1788 87.5232 103.81 89.2159 125.986C91.0632 150.263 113.609 164.439 132.013 155.875C150.416 147.311 151.923 116.115 156.576 97.0627C161.229 78.01 169.67 66.1456 175.559 59.313C181.449 52.4803 174.941 45.5858 169.144 47.2553C163.347 48.9248 146.606 56.1826 130.908 59.1816C115.209 62.1805 94.8273 65.365 80.4432 66.1379C66.059 66.9108 62.1248 66.393 62.3026 75.4903C62.3644 78.3888 68.0995 75.6372 77.3205 75.3589C94.3249 74.8333 148.237 91.6522 165.697 59.4366" fill="#EC8023"/>
<path d="M66.2758 76.75V76.835C66.2869 76.9842 66.2869 77.1341 66.2758 77.2833C66.2758 77.6002 66.1985 77.9635 66.1521 78.3654C65.9708 79.3806 66.0834 80.4265 66.4767 81.3798C66.7915 82.0472 67.2447 82.64 67.8061 83.1189C68.5811 83.7616 69.439 84.2972 70.3568 84.7111C70.8824 84.943 71.4312 85.1749 72.0263 85.3758C72.3278 85.4763 72.6215 85.5922 72.9461 85.6773L73.4176 85.8241L73.7499 85.9246L74.005 86.0096C75.686 86.6573 77.1902 87.6928 78.3952 89.0318C80.9269 91.8326 82.9795 95.0316 84.4704 98.5001C86.2282 102.448 87.6126 106.552 88.6056 110.759C89.7528 115.501 90.5281 120.326 90.9244 125.189L91.0094 126.101L91.1099 127.052L91.2104 128.01L91.3572 128.907C91.5509 130.138 91.8089 131.359 92.1301 132.563C92.7793 135.074 93.7047 137.506 94.8895 139.813C97.4055 144.719 101.13 148.903 105.71 151.971C110.567 155.25 116.351 156.876 122.205 156.609C125.189 156.433 128.117 155.718 130.846 154.499C133.661 153.257 136.179 151.431 138.235 149.142C142.479 144.505 145.192 138.275 147.232 131.821C149.186 125.123 150.753 118.317 151.924 111.439C152.581 107.93 153.222 104.39 153.964 100.819C154.351 99.0412 154.737 97.2557 155.216 95.4548C155.456 94.5736 155.665 93.7002 155.92 92.8114L156.693 90.1293C158.913 82.9861 161.983 76.1354 165.836 69.7241C167.785 66.4887 169.951 63.3898 172.321 60.449C172.909 59.676 173.512 58.9881 174.122 58.2693C174.331 58.0142 174.733 57.4964 174.895 57.2954C175.109 56.9903 175.3 56.6699 175.467 56.337C175.815 55.7305 176.034 55.058 176.108 54.3625C176.182 53.6669 176.11 52.9636 175.897 52.2974C175.684 51.6312 175.334 51.0167 174.87 50.4932C174.406 49.9697 173.838 49.5487 173.202 49.257C172.576 48.9519 171.896 48.7708 171.2 48.7237C170.862 48.7106 170.523 48.7287 170.188 48.7778C169.813 48.8474 169.443 48.9456 169.083 49.0715C165.689 50.1536 162.204 51.5217 158.733 52.7583C151.806 55.3361 144.753 57.5624 137.601 59.4287C134.023 60.3407 130.367 61.0132 126.842 61.6625C123.318 62.3117 119.724 62.9378 116.191 63.5097C109.127 64.6769 102.124 65.6971 95.1987 66.501C93.4673 66.7097 91.7437 66.9106 90.02 67.0652C88.2964 67.2198 86.5883 67.4285 84.8646 67.529C83.141 67.6294 81.4406 67.7686 79.7479 67.8536L74.7238 68.0932C73.0698 68.1859 71.4389 68.2864 69.8776 68.4719C68.464 68.5742 67.0822 68.9412 65.8043 69.554C65.3423 69.8239 64.9566 70.207 64.6835 70.667C64.392 71.2119 64.1959 71.8027 64.1038 72.4138C63.9877 73.1242 63.9283 73.8428 63.9261 74.5626V75.4051C63.9261 75.2273 63.9261 75.4051 63.9261 75.4051V75.5442C63.9277 75.4242 63.8834 75.3081 63.8024 75.2196C63.7328 75.1191 63.6169 75.0805 63.6401 75.0805C63.8259 75.1332 64.0193 75.1542 64.212 75.1423C64.5135 75.1423 64.8613 75.1423 65.2168 75.0882C65.9434 75.0109 66.7086 74.8949 67.4738 74.779C69.0196 74.5394 70.5655 74.2998 72.1113 74.1143C73.6572 73.9288 75.2572 73.8051 76.8262 73.751H77.4291H78.001H79.1991C79.972 73.751 80.7449 73.8206 81.5179 73.8824C87.6008 74.3925 93.2895 75.3201 98.785 75.9925C109.745 77.4224 119.84 78.1876 128.713 77.6079C137.586 77.0282 145.145 75.1964 150.772 72.3829C153.286 71.1539 155.64 69.6224 157.782 67.8227C159.38 66.4936 160.847 65.0158 162.165 63.4093C163.232 62.0953 163.966 61.0132 164.484 60.2789L165.203 59.1504L166.138 59.6528L165.504 60.8818C164.871 62.0692 164.164 63.2154 163.386 64.3136C160.384 68.5325 156.444 71.9983 151.877 74.4389C148.652 76.2011 145.223 77.5612 141.667 78.489C137.503 79.5494 133.249 80.2196 128.96 80.4909C119.816 81.1402 109.521 80.4136 98.4758 79.0378C92.9494 78.3886 87.2066 77.492 81.3555 77.0514C80.6213 76.9973 79.8947 76.9587 79.1682 76.9432H78.1092H77.5141H76.9808C75.5122 77.005 74.0282 77.1364 72.5287 77.3219C71.0293 77.5074 69.522 77.747 67.9685 78.0021C67.1955 78.1258 66.4226 78.2494 65.5492 78.3422C65.0975 78.3928 64.6434 78.4186 64.1889 78.4195C63.586 78.4384 62.9851 78.3414 62.4189 78.1335C61.979 77.9607 61.5887 77.6819 61.2827 77.3219C60.9594 76.9163 60.7535 76.4297 60.6875 75.9152V75.7529C60.6875 75.6524 60.6875 75.7529 60.6875 75.4901V74.5317C60.6905 73.644 60.7603 72.7578 60.8962 71.8805C61.0521 70.8909 61.3735 69.9346 61.8469 69.0516C62.407 68.0917 63.2058 67.293 64.1657 66.7328C65.827 65.8644 67.6459 65.3387 69.5143 65.187C71.2302 64.9628 72.9152 64.8546 74.5924 64.7542L79.6242 64.4836C81.3014 64.3909 82.971 64.244 84.6559 64.1358C86.3409 64.0276 88.0336 63.8266 89.7341 63.6721C91.4345 63.5175 93.1427 63.3242 94.8508 63.1155C101.707 62.3426 108.671 61.2914 115.72 60.132C117.482 59.8461 119.237 59.5446 120.999 59.2355C122.761 58.9263 124.523 58.6249 126.301 58.2925C129.872 57.6355 133.358 56.9862 136.844 56.0974C143.88 54.252 150.82 52.0541 157.636 49.5121C161.114 48.2754 164.507 46.9382 168.147 45.7634C168.664 45.5884 169.194 45.4565 169.732 45.3692C170.309 45.2726 170.895 45.2415 171.479 45.2764C173.221 45.3795 174.894 45.9991 176.282 47.0563C177.671 48.1135 178.714 49.5604 179.278 51.2125C179.625 52.3145 179.749 53.4748 179.643 54.6254C179.537 55.776 179.202 56.8939 178.659 57.9138C178.536 58.1688 178.396 58.4007 178.257 58.6326C178.12 58.8745 177.97 59.1093 177.809 59.3359C177.438 59.8693 177.237 60.1089 176.858 60.5494C176.271 61.2373 175.691 61.933 175.127 62.6441C172.855 65.4581 170.776 68.4226 168.905 71.5173C165.194 77.6874 162.238 84.2814 160.101 91.1573L159.328 93.7002C159.081 94.5582 158.865 95.4548 158.633 96.3282C158.169 98.0286 157.79 99.7832 157.419 101.522C156.685 105.024 156.043 108.556 155.386 112.065C154.188 119.077 152.585 126.014 150.587 132.841C149.557 136.219 148.265 139.512 146.722 142.688C145.18 145.875 143.2 148.83 140.84 151.469C138.471 154.103 135.574 156.21 132.338 157.652C129.196 159.05 125.824 159.859 122.39 160.04C119.058 160.226 115.72 159.836 112.52 158.889C109.434 157.978 106.501 156.613 103.817 154.839C98.7551 151.441 94.6426 146.81 91.8673 141.382C90.5624 138.853 89.5461 136.185 88.8375 133.429C88.4889 132.094 88.2102 130.742 88.0027 129.379L87.8481 128.366L87.7476 127.408L87.6472 126.457L87.5621 125.468C87.1947 120.781 86.4686 116.13 85.3902 111.555C84.4645 107.556 83.1708 103.652 81.5256 99.8914C80.198 96.7647 78.3707 93.8749 76.1151 91.3351C75.2671 90.3753 74.2091 89.6241 73.0234 89.14L72.7683 89.055C72.7683 89.055 72.892 89.055 72.7683 89.055H72.6988L72.5674 89.0163L72.0341 88.854C71.6785 88.7535 71.3307 88.6221 70.9906 88.5062C70.3104 88.2666 69.6612 87.996 69.0351 87.7332C67.8059 87.1906 66.6606 86.4748 65.6342 85.6077C64.725 84.8221 63.9927 83.8526 63.4855 82.7633C63.0877 81.8761 62.8621 80.9213 62.8208 79.9499C62.7909 79.302 62.8194 78.6527 62.9058 78.0098C62.9676 77.5306 63.014 77.2369 63.0217 77.0746C63.0217 77.0746 63.0217 77.0746 63.0217 77.0128V76.9277L66.2758 76.75Z" fill="#221F1F"/>
<path d="M170.087 43.6224C170.775 36.9288 167.823 31.1396 163.487 30.6913C159.151 30.243 155.085 35.3289 154.397 42.007C153.709 48.685 156.662 54.482 160.998 54.9303C165.334 55.3786 169.4 50.3159 170.087 43.6224Z" fill="white" stroke="#221F1F" stroke-width="3.36486" stroke-linecap="round" stroke-linejoin="round"/>
<path d="M166.401 47.6493C166.648 43.7847 165.234 40.5848 163.232 40.4534C161.23 40.322 159.367 43.3286 159.151 47.1701C158.934 51.0115 160.318 54.2346 162.32 54.3583C164.322 54.482 166.169 51.4908 166.401 47.6493Z" fill="#221F1F"/>
<path d="M152.287 48.5074C152.542 44.6428 151.128 41.4506 149.126 41.3192C147.124 41.1878 145.261 44.1945 145.045 48.0359C144.828 51.8774 146.212 55.0928 148.206 55.2242C150.2 55.3556 152.04 52.3257 152.287 48.5074Z" fill="#221F1F"/>
<path d="M138.468 27.1125C138.503 25.6998 138.864 24.3144 139.524 23.0647C140.184 21.815 141.124 20.7349 142.27 19.9089C143.488 19.0482 144.955 18.6115 146.445 18.6659C147.935 18.7204 149.366 19.263 150.517 20.2103C150.613 20.285 150.682 20.3877 150.716 20.5039C150.75 20.6201 150.747 20.744 150.707 20.8582C150.667 20.9724 150.592 21.0713 150.493 21.1408C150.394 21.2104 150.275 21.2472 150.154 21.246H150.069C148.949 21.1313 147.819 21.1599 146.707 21.331C145.743 21.5089 144.829 21.891 144.025 22.4518C142.386 23.6189 140.933 25.443 139.349 27.3753C139.286 27.4523 139.201 27.5078 139.105 27.5341C139.009 27.5605 138.907 27.5564 138.814 27.5224C138.72 27.4885 138.64 27.4263 138.583 27.3446C138.527 27.2628 138.497 27.1655 138.498 27.0662L138.468 27.1125Z" fill="#231F20"/>
<path d="M166.4 18.4249C164.019 17.6056 161.863 16.7708 159.861 16.6162C158.883 16.5449 157.902 16.6873 156.986 17.0336C155.933 17.4563 154.94 18.015 154.033 18.6954L153.963 18.7418C153.835 18.8152 153.684 18.8368 153.54 18.8023C153.396 18.7679 153.271 18.6798 153.19 18.5563C153.142 18.48 153.112 18.3931 153.104 18.303C153.096 18.2129 153.11 18.1221 153.144 18.0384C153.643 16.6326 154.59 15.4301 155.841 14.617C157.091 13.8039 158.575 13.4253 160.062 13.54C161.491 13.6498 162.871 14.1089 164.081 14.8771C165.262 15.5852 166.256 16.5659 166.979 17.737C167.013 17.791 167.034 17.8511 167.044 17.9137C167.053 17.9764 167.05 18.0402 167.034 18.1016C167.018 18.1629 166.99 18.2204 166.951 18.2706C166.913 18.3208 166.865 18.3628 166.809 18.3939C166.752 18.4314 166.686 18.4551 166.618 18.4631C166.549 18.4712 166.48 18.4634 166.415 18.4403L166.4 18.4249Z" fill="#231F20"/>
<path d="M200.633 240.75C208.123 240.75 207.188 262.453 205.518 277.85C204.931 282.318 216.038 289.699 219.81 292.737C223.581 295.774 224.501 300.837 216.842 300.806C212.42 301.015 212.621 299.662 209.112 299.701C205.603 299.739 203.524 303.936 198.956 303.89C194.388 303.844 194.087 300.025 190.454 299.801C186.821 299.577 181.279 301.27 176.966 300.937C172.653 300.605 170.056 296.98 174.222 294.228C178.388 291.477 196.073 285.726 196.931 278.407C197.789 271.087 193.136 240.75 200.633 240.75Z" fill="#EE8022" stroke="#221F1F" stroke-width="3.54196" stroke-linecap="round" stroke-linejoin="round"/>
<path d="M196.375 241.46C210.89 241.916 219.392 236.367 225.143 233.321C230.894 230.276 230.43 226.203 223.945 225.677L207.837 224.178" fill="white"/>
<path d="M196.374 240.803C196.374 240.803 197.309 240.679 198.932 240.54L201.761 240.169C202.859 239.991 204.08 239.806 205.41 239.535C206.739 239.265 208.161 238.94 209.645 238.5C210.418 238.299 211.145 238.059 211.918 237.82C212.691 237.58 213.463 237.286 214.236 236.977C215.782 236.39 217.413 235.679 219.021 234.89C220.628 234.102 222.236 233.221 223.906 232.355L224.485 232.061L225.142 231.69C225.498 231.492 225.841 231.273 226.17 231.033C226.76 230.621 227.262 230.096 227.647 229.487C227.925 228.939 227.933 228.653 227.724 228.289C227.328 227.799 226.787 227.447 226.178 227.285C225.458 227.035 224.711 226.869 223.952 226.79L221.502 226.473C219.917 226.272 218.41 226.094 217.042 225.901L210.364 224.973L207.837 224.587C207.777 224.58 207.719 224.56 207.667 224.53C207.615 224.499 207.569 224.459 207.533 224.41C207.497 224.362 207.471 224.307 207.457 224.248C207.443 224.19 207.44 224.129 207.45 224.069C207.467 223.958 207.525 223.857 207.612 223.786C207.699 223.714 207.809 223.678 207.922 223.683L210.472 223.768L217.204 224.092C218.603 224.154 220.111 224.255 221.703 224.347L224.145 224.502C225.094 224.55 226.033 224.711 226.943 224.981C228.06 225.279 229.053 225.923 229.78 226.821C230.21 227.396 230.452 228.089 230.476 228.807C230.498 229.157 230.458 229.507 230.36 229.843C230.288 230.158 230.173 230.462 230.02 230.747C229.479 231.736 228.733 232.598 227.832 233.275C227.418 233.592 226.987 233.886 226.541 234.156L225.946 234.511L225.297 234.875C222.118 236.771 218.804 238.429 215.38 239.837C213.773 240.467 212.129 240.999 210.457 241.429C208.952 241.791 207.426 242.065 205.889 242.248C205.17 242.318 204.49 242.403 203.833 242.442L201.955 242.511C200.787 242.511 199.759 242.457 198.932 242.426C197.302 242.264 196.374 242.125 196.374 242.125C196.286 242.113 196.201 242.083 196.125 242.037C196.048 241.991 195.982 241.93 195.93 241.858C195.878 241.785 195.841 241.703 195.822 241.616C195.802 241.529 195.801 241.439 195.818 241.352C195.84 241.213 195.907 241.086 196.007 240.987C196.107 240.888 196.235 240.824 196.374 240.803Z" fill="#221F1F"/>
<path d="M200.015 231.613C213.665 233.414 225.777 224 229.51 220.599C233.243 217.198 229.711 214.841 226.202 214.64L200.517 213.195" fill="white"/>
<path d="M200.069 230.917H200.842C201.336 230.917 202.086 230.972 202.983 230.917C203.879 230.863 204.923 230.817 206.167 230.593C206.785 230.5 207.435 230.423 208.115 230.253C208.795 230.083 209.522 229.974 210.256 229.735C210.99 229.495 211.763 229.333 212.536 229.032C213.309 228.73 214.128 228.483 214.932 228.127C216.641 227.418 218.308 226.613 219.925 225.716C221.602 224.757 223.303 223.706 224.957 222.531C225.784 221.936 226.611 221.333 227.407 220.692C228.176 220.128 228.878 219.48 229.502 218.759C229.625 218.62 229.68 218.45 229.788 218.303C229.896 218.156 229.919 218.01 229.904 217.894C229.929 217.774 229.926 217.649 229.897 217.53C229.867 217.411 229.812 217.3 229.734 217.206C229.212 216.6 228.515 216.17 227.739 215.977C227.306 215.845 226.861 215.754 226.41 215.706C225.969 215.652 225.405 215.621 224.911 215.583L221.896 215.351L211.075 214.524L200.517 213.681C200.391 213.661 200.277 213.594 200.198 213.495C200.118 213.396 200.077 213.27 200.084 213.143C200.091 213.016 200.144 212.895 200.234 212.805C200.324 212.715 200.444 212.661 200.571 212.653L211.168 213.001L221.989 213.395L225.011 213.503C225.537 213.503 226 213.503 226.557 213.573C227.142 213.611 227.722 213.707 228.288 213.859C228.886 214.009 229.463 214.235 230.004 214.531C230.609 214.851 231.137 215.3 231.55 215.845C231.789 216.167 231.974 216.524 232.099 216.904C232.211 217.304 232.248 217.72 232.207 218.133C232.171 218.52 232.08 218.9 231.936 219.262C231.794 219.583 231.623 219.891 231.426 220.181C230.721 221.106 229.903 221.94 228.992 222.663C228.172 223.381 227.33 224.054 226.464 224.695C224.787 225.955 223.026 227.099 221.193 228.119C219.472 229.077 217.685 229.909 215.844 230.608C214.193 231.249 212.492 231.75 210.758 232.108C209.993 232.283 209.219 232.414 208.439 232.502C207.736 232.609 207.026 232.674 206.314 232.695C205.151 232.775 203.983 232.775 202.82 232.695C201.862 232.618 201.166 232.479 200.672 232.409L199.899 232.286C199.73 232.26 199.578 232.171 199.473 232.038C199.367 231.905 199.316 231.736 199.33 231.567C199.344 231.397 199.421 231.239 199.547 231.124C199.672 231.009 199.837 230.947 200.007 230.948L200.069 230.917Z" fill="#221F1F"/>
<path d="M201.275 221.109C217.677 221.48 226.311 214.021 228.173 211.78C230.036 209.538 231.644 204.051 224.695 205.596C217.747 207.142 202.11 207.088 193.832 201.778C185.33 196.368 183.684 174.656 175.282 172.16C167.074 169.709 159.128 180.422 159.128 180.422L154.83 187.788C154.83 187.788 140.601 214.439 157.42 232.471C175.614 251.972 206.423 248.061 211.973 246.206C217.383 244.39 218.751 240.695 214.292 239.18C214.292 239.18 196.646 244.853 192.395 240.726" fill="white"/>
<path d="M196.375 241.46C210.89 241.916 219.392 236.367 225.143 233.321C230.894 230.276 230.43 226.203 223.945 225.677L207.837 224.178" fill="white"/>
<path d="M196.374 240.804C196.374 240.804 197.309 240.742 198.932 240.68L201.784 240.417C202.89 240.278 204.103 240.124 205.464 239.869C206.824 239.613 208.246 239.32 209.746 238.902C210.518 238.701 211.291 238.462 212.064 238.222C212.837 237.983 213.61 237.697 214.422 237.38C216.065 236.763 217.675 236.061 219.245 235.277C220.86 234.504 222.476 233.6 224.13 232.727L224.717 232.41L225.328 232.07C225.692 231.858 226.045 231.629 226.387 231.382C227.008 230.928 227.534 230.355 227.932 229.697C228.078 229.465 228.155 229.197 228.155 228.924C228.155 228.65 228.078 228.383 227.932 228.151C227.482 227.614 226.878 227.228 226.201 227.046C225.45 226.793 224.672 226.627 223.882 226.551L221.44 226.281L216.965 225.778L210.279 225.005L207.744 224.681C207.632 224.66 207.532 224.598 207.463 224.507C207.395 224.416 207.363 224.303 207.373 224.19C207.384 224.076 207.437 223.971 207.521 223.895C207.605 223.818 207.715 223.776 207.829 223.776L210.379 223.923L217.096 224.379L221.587 224.711L224.029 224.897C224.951 224.958 225.864 225.121 226.75 225.384C227.798 225.655 228.734 226.25 229.424 227.084C229.808 227.602 230.024 228.225 230.043 228.87C230.054 229.185 230.018 229.501 229.934 229.805C229.864 230.093 229.757 230.371 229.617 230.632C229.093 231.567 228.376 232.381 227.515 233.02C227.112 233.322 226.694 233.604 226.263 233.863L225.66 234.211L225.026 234.566C221.865 236.409 218.58 238.03 215.195 239.42C213.6 240.05 211.969 240.581 210.31 241.012C208.822 241.386 207.315 241.68 205.796 241.894C205.085 241.979 204.412 242.079 203.763 242.133L201.924 242.249C200.772 242.296 199.744 242.249 198.925 242.249C197.294 242.164 196.366 242.087 196.366 242.087C196.192 242.087 196.025 242.018 195.902 241.894C195.778 241.771 195.709 241.604 195.709 241.43C195.709 241.256 195.778 241.089 195.902 240.965C196.025 240.842 196.192 240.773 196.366 240.773L196.374 240.804Z" fill="#221F1F"/>
<path d="M200.015 231.613C213.665 233.414 225.777 224 229.51 220.599C233.243 217.198 229.711 214.841 226.202 214.64L200.517 213.195" fill="white"/>
<path d="M200.069 230.917L200.842 230.964C201.329 230.964 202.079 231.064 202.975 231.049C204.05 231.034 205.123 230.964 206.191 230.84C206.856 230.783 207.516 230.685 208.169 230.546C208.857 230.399 209.591 230.299 210.333 230.067C211.075 229.835 211.879 229.681 212.652 229.379C213.474 229.117 214.281 228.812 215.072 228.467C216.797 227.759 218.475 226.941 220.096 226.017C221.829 225.019 223.501 223.92 225.104 222.724C225.923 222.114 226.735 221.488 227.523 220.823C228.288 220.239 228.978 219.564 229.579 218.813C229.684 218.662 229.779 218.504 229.865 218.342C229.865 218.195 229.997 218.033 229.974 217.909C229.998 217.782 229.993 217.652 229.96 217.527C229.926 217.403 229.865 217.288 229.78 217.19C229.245 216.586 228.534 216.164 227.747 215.984C227.313 215.858 226.868 215.77 226.418 215.722C225.977 215.668 225.413 215.644 224.919 215.606L221.896 215.397C217.939 215.126 214.237 214.848 211.075 214.624C204.737 214.137 200.517 213.72 200.517 213.72C200.392 213.699 200.278 213.633 200.198 213.533C200.118 213.434 200.077 213.309 200.084 213.182C200.091 213.054 200.144 212.934 200.234 212.844C200.324 212.753 200.444 212.699 200.571 212.692C200.571 212.692 204.815 212.754 211.168 212.978C214.345 213.078 218.055 213.217 221.989 213.395L225.011 213.527C225.537 213.527 226.001 213.527 226.557 213.604C227.142 213.648 227.722 213.747 228.289 213.898C228.881 214.057 229.452 214.288 229.989 214.585C230.596 214.908 231.125 215.363 231.535 215.915C231.766 216.232 231.944 216.584 232.06 216.958C232.166 217.351 232.2 217.759 232.161 218.164C232.119 218.543 232.025 218.915 231.883 219.269C231.734 219.582 231.561 219.881 231.365 220.166C230.649 221.071 229.82 221.882 228.899 222.577C228.072 223.273 227.214 223.93 226.348 224.541C224.648 225.752 222.878 226.862 221.046 227.864C219.331 228.798 217.554 229.614 215.728 230.307C214.863 230.655 213.989 230.925 213.155 231.18C212.32 231.435 211.485 231.628 210.697 231.822C209.908 232.015 209.151 232.123 208.378 232.255C207.682 232.372 206.98 232.452 206.276 232.494C205.124 232.595 203.967 232.619 202.813 232.564C201.862 232.564 201.159 232.401 200.656 232.363L199.884 232.285C199.715 232.26 199.563 232.171 199.458 232.038C199.352 231.904 199.301 231.736 199.315 231.566C199.328 231.397 199.406 231.239 199.532 231.124C199.657 231.009 199.822 230.947 199.992 230.948L200.069 230.917Z" fill="#221F1F"/>
<path d="M195.91 210.311C195.91 210.311 196.042 221.132 199.257 221.132C202.472 221.132 220.126 221.387 226.441 213.658C232.756 205.929 225.536 208.765 225.536 208.765" fill="white"/>
<path d="M150.547 203.695C150.918 205.852 150.663 207.861 150.694 209.879C150.709 211.906 150.856 213.93 151.135 215.938C151.415 217.929 151.902 219.884 152.588 221.774C153.296 223.644 154.2 225.435 155.285 227.115C155.826 227.95 156.383 228.777 157.001 229.557C157.604 230.373 158.259 231.147 158.964 231.876L160.031 232.958C160.394 233.321 160.804 233.646 161.16 233.994C161.894 234.689 162.705 235.308 163.478 235.949C166.742 238.437 170.324 240.478 174.129 242.017C181.821 245.063 190.026 246.604 198.299 246.554C200.37 246.554 202.442 246.484 204.482 246.307C206.528 246.151 208.562 245.867 210.573 245.456C212.443 245.137 214.171 244.255 215.527 242.929C215.801 242.677 216.001 242.356 216.107 241.999C216.214 241.643 216.221 241.264 216.13 240.904C215.726 240.16 215.046 239.605 214.236 239.358C214.072 239.291 213.94 239.162 213.871 238.998C213.801 238.834 213.799 238.65 213.865 238.485C213.929 238.331 214.047 238.206 214.196 238.134C214.346 238.061 214.517 238.046 214.677 238.09C215.252 238.25 215.802 238.492 216.308 238.809C216.873 239.172 217.332 239.679 217.637 240.278C217.946 240.931 218.022 241.67 217.854 242.372C217.699 243.01 217.412 243.607 217.011 244.127C216.265 245.061 215.334 245.829 214.275 246.384C213.271 246.923 212.204 247.335 211.098 247.613C208.999 248.125 206.865 248.484 204.714 248.687C202.581 248.904 200.44 249.02 198.299 249.05C189.674 249.267 181.091 247.783 173.039 244.683C171.022 243.883 169.062 242.946 167.173 241.878C165.289 240.815 163.481 239.621 161.762 238.307C160.912 237.627 160.047 236.97 159.243 236.228C158.841 235.857 158.423 235.517 158.037 235.13L156.878 233.971C155.292 232.427 153.894 230.702 152.712 228.831C151.547 226.942 150.601 224.927 149.89 222.825C149.17 220.744 148.652 218.598 148.344 216.417C148.182 215.335 148.082 214.238 148.028 213.148C147.966 212.059 147.966 210.967 148.028 209.879C148.159 207.714 148.306 205.519 149.342 203.517C149.382 203.436 149.439 203.364 149.508 203.306C149.577 203.247 149.657 203.203 149.743 203.175C149.83 203.148 149.921 203.138 150.011 203.146C150.101 203.155 150.189 203.181 150.269 203.224C150.362 203.273 150.443 203.342 150.506 203.426C150.569 203.51 150.612 203.607 150.632 203.711L150.547 203.695Z" fill="#221F1F"/>
<path d="M201.29 220.46C206.36 220.339 211.38 219.426 216.169 217.755C218.514 216.908 220.758 215.807 222.862 214.47C223.896 213.811 224.88 213.077 225.807 212.275C226.248 211.89 226.664 211.477 227.052 211.038C227.733 210.239 228.192 209.273 228.381 208.24C228.46 207.884 228.43 207.512 228.296 207.173C228.195 207.003 228.064 206.88 227.662 206.779C227.184 206.684 226.693 206.668 226.209 206.733C225.637 206.795 225.15 206.911 224.431 207.057C223.713 207.204 223.102 207.305 222.437 207.397C221.108 207.583 219.786 207.714 218.457 207.784C213.156 208.103 207.836 207.724 202.635 206.655C199.976 206.115 197.395 205.245 194.952 204.066C194.334 203.757 193.731 203.417 193.136 203.046C192.505 202.646 191.917 202.182 191.381 201.662C190.377 200.658 189.505 199.531 188.784 198.308C187.456 195.985 186.331 193.551 185.422 191.035C184.487 188.592 183.636 186.157 182.67 183.815C181.813 181.516 180.645 179.345 179.2 177.362C178.528 176.483 177.69 175.745 176.734 175.19C176.284 174.936 175.8 174.749 175.296 174.633C175.041 174.579 174.794 174.533 174.523 174.502L173.635 174.463C172.458 174.445 171.283 174.541 170.126 174.749C169.553 174.855 168.988 174.997 168.433 175.174L167.606 175.445L166.786 175.769C166.258 176 165.742 176.258 165.241 176.542C164.723 176.828 164.213 177.137 163.695 177.477C162.675 178.134 161.886 179.023 160.603 179.603C160.515 179.643 160.421 179.665 160.324 179.668C160.228 179.671 160.132 179.654 160.042 179.62C159.952 179.585 159.87 179.533 159.801 179.467C159.731 179.4 159.675 179.32 159.637 179.232C159.581 179.069 159.581 178.892 159.637 178.73C160.054 177.323 161.113 176.411 162.11 175.445C162.627 174.975 163.169 174.534 163.733 174.123C164.322 173.729 164.934 173.37 165.565 173.049L166.531 172.6L167.529 172.214C168.209 172.002 168.9 171.829 169.6 171.696C170.99 171.45 172.405 171.379 173.812 171.487L174.856 171.58C175.241 171.618 175.623 171.683 176 171.773C176.759 171.948 177.49 172.229 178.172 172.608C179.466 173.35 180.601 174.34 181.511 175.522C183.118 177.721 184.418 180.129 185.375 182.679C186.38 185.122 187.238 187.572 188.15 189.96C188.998 192.315 190.045 194.593 191.281 196.77C191.871 197.781 192.588 198.714 193.414 199.545C193.807 199.93 194.239 200.272 194.705 200.565C195.207 200.874 195.733 201.168 196.25 201.438C198.465 202.506 200.801 203.301 203.207 203.803C208.156 204.824 213.218 205.198 218.263 204.916C219.523 204.847 220.783 204.746 222.02 204.584C222.638 204.507 223.249 204.406 223.852 204.29C224.525 204.141 225.206 204.027 225.892 203.95C226.695 203.854 227.508 203.898 228.296 204.082C228.775 204.197 229.229 204.402 229.633 204.685C230.079 204.998 230.441 205.418 230.684 205.906C231.083 206.757 231.2 207.713 231.017 208.634C230.879 209.401 230.634 210.145 230.29 210.845C229.953 211.532 229.53 212.174 229.03 212.754C228.55 213.284 228.034 213.78 227.484 214.238C226.448 215.12 225.348 215.923 224.192 216.642C221.901 218.05 219.449 219.176 216.888 219.996C211.819 221.586 206.491 222.176 201.197 221.735C201.036 221.718 200.887 221.641 200.779 221.521C200.671 221.4 200.611 221.244 200.611 221.082C200.611 220.92 200.671 220.764 200.779 220.643C200.887 220.523 201.036 220.447 201.197 220.429L201.29 220.46Z" fill="#221F1F"/>
<path d="M171.811 57.1866L154.15 114.306C154.15 114.306 150.958 126.742 126.564 131.148C111.879 133.791 100.184 133.9 93.7923 134.541C92.2892 134.693 90.7804 134.312 89.5299 133.465C88.2793 132.617 87.3668 131.356 86.9519 129.904L77.7232 97.3479C77.228 95.9079 76.4508 94.5812 75.4369 93.4451C74.4229 92.3091 73.1927 91.3866 71.818 90.7316C67.0259 88.4129 59.8454 83.412 59.9536 73.6886C59.9742 71.556 60.7543 69.5005 62.1539 67.8912C63.5535 66.282 65.4809 65.2243 67.5901 64.9082C91.6977 61.3063 171.811 57.1866 171.811 57.1866Z" fill="#96D3BC"/>
<path d="M170.041 57.6503C172.661 57.4339 187.819 57.7508 192.201 53.1674" stroke="#3D8E6F" stroke-width="2.65647" stroke-linecap="round" stroke-linejoin="round"/>
<path d="M154.118 113.602C154.118 113.602 178.334 84.1772 174.462 83.412" stroke="#3D8E6F" stroke-width="2.65647" stroke-linecap="round" stroke-linejoin="round"/>
<path d="M169.384 58.9334L152.727 113.541C151.861 115.674 146.544 126.356 125.791 130.104C116.291 131.8 106.656 132.618 97.0068 132.547H92.3693C91.3722 132.547 90.6534 132.547 90.0505 132.547L79.8865 96.6754C79.8771 96.6356 79.8642 96.5968 79.8479 96.5594C79.246 94.8303 78.3087 93.237 77.0898 91.8709C75.8708 90.5047 74.3943 89.3926 72.7447 88.5983C67.8907 86.2795 62.117 81.8197 62.202 73.6731C62.2112 72.091 62.787 70.5646 63.8249 69.3707C64.8629 68.1767 66.2944 67.3942 67.8598 67.165C88.9375 64.027 153.724 59.8841 169.322 58.9102L169.384 58.9334ZM170.388 56.5219H170.288C157.148 57.2948 89.2621 61.6309 67.4888 64.8617C65.3796 65.1779 63.4522 66.2355 62.0526 67.8448C60.653 69.454 59.8728 71.5095 59.8523 73.6422C59.7441 83.3656 66.9246 88.4051 71.7167 90.6852C73.0913 91.3402 74.3216 92.2626 75.3355 93.3987C76.3495 94.5347 77.1267 95.8615 77.6219 97.3014L87.9559 133.76C88.0457 134.087 88.2403 134.375 88.5098 134.58C88.7793 134.786 89.1088 134.897 89.4476 134.897H89.5713C90.2437 134.842 91.1635 134.827 92.3074 134.827H96.945C106.753 134.909 116.549 134.091 126.208 132.385C149.535 128.172 154.528 115.272 154.899 114.375C154.901 114.334 154.901 114.293 154.899 114.252L171.903 58.5546C171.976 58.323 171.993 58.0774 171.954 57.8378C171.914 57.5983 171.818 57.3714 171.675 57.1757C171.531 56.98 171.343 56.8209 171.126 56.7113C170.909 56.6017 170.67 56.5448 170.427 56.545L170.388 56.5219Z" fill="#3D8E6F"/>
<path d="M66.0586 85.0658C66.0586 85.0658 124.43 86.4802 143.351 78.6814" stroke="#3D8E6F" stroke-width="2.65647" stroke-linecap="round" stroke-linejoin="round"/>
<path d="M81.4253 105.386C81.4253 105.386 131.758 104.443 141.211 98.2983" stroke="#3D8E6F" stroke-width="2.65647" stroke-linecap="round" stroke-linejoin="round"/>
<path d="M86.209 120.984C86.209 120.984 125.141 120.745 136.952 114.801" stroke="#3D8E6F" stroke-width="2.65647" stroke-linecap="round" stroke-linejoin="round"/>
<path d="M64.644 65.9209L140.499 52.4565L144.99 59.0728L64.644 65.9209Z" fill="#2D6C51"/>
<path d="M180.707 249.066C180.707 249.066 178.844 267.577 179.269 271.419C179.694 275.26 182.446 275.399 182.616 280.431C182.786 285.463 168.518 285.331 159.428 297.312C156.437 301.254 152.65 301.818 148.87 300.295C145.345 298.873 146.358 295.781 143.846 294.112C141.334 292.442 138.714 293.911 135.854 292.674C132.994 291.438 134.03 288.307 131.216 287.457C128.403 286.607 122.567 286.506 122.714 283.013C122.83 280.199 127.483 277.88 135.931 276.945C144.379 276.01 172.583 277.958 171.81 271.426C171.037 264.895 170.605 245.92 170.605 245.92" fill="#EE8022"/>
<path d="M152.604 302.622C151.125 302.605 149.662 302.301 148.299 301.725C147.375 301.35 146.545 300.775 145.869 300.041C145.193 299.308 144.687 298.434 144.388 297.482C144.159 296.658 143.671 295.929 142.997 295.403C142.038 294.769 141.01 294.769 139.696 294.777C138.18 294.88 136.659 294.645 135.244 294.089C134.516 293.746 133.865 293.256 133.333 292.651C132.802 292.046 132.4 291.339 132.153 290.572C131.697 289.505 131.488 289.142 130.808 288.933C130.243 288.763 129.478 288.617 128.674 288.454C125.637 287.867 121.038 286.978 121.208 282.943C121.363 279.079 126.549 276.435 135.801 275.407C138.12 275.152 141.66 275.106 145.795 275.052C154.019 274.944 167.784 274.758 170.157 272.076C170.223 272.016 170.273 271.941 170.304 271.858C170.335 271.774 170.345 271.685 170.335 271.597C169.609 265.081 169.145 246.724 169.122 245.943C169.122 245.533 169.285 245.14 169.574 244.85C169.864 244.56 170.258 244.397 170.668 244.397C171.07 244.397 171.456 244.554 171.745 244.834C172.033 245.114 172.201 245.495 172.213 245.897C172.213 246.09 172.7 264.903 173.411 271.288C173.47 271.803 173.417 272.326 173.255 272.819C173.094 273.313 172.828 273.766 172.476 274.147C169.431 277.587 159.074 278.012 145.833 278.174C141.783 278.228 138.282 278.275 136.141 278.514C126.866 279.542 124.346 281.962 124.3 283.106C124.246 284.373 126.518 284.922 129.262 285.424C130.151 285.594 130.985 285.757 131.704 285.973C133.814 286.615 134.495 288.191 134.997 289.343C135.43 290.356 135.693 290.889 136.504 291.252C137.533 291.625 138.629 291.773 139.72 291.685C141.471 291.527 143.227 291.927 144.736 292.829C145.923 293.685 146.811 294.894 147.271 296.284C147.781 297.505 148.114 298.309 149.489 298.866C152.975 300.265 155.92 299.43 158.239 296.377C163.526 289.42 170.405 286.383 175.429 284.18C178.52 282.835 181.148 281.676 181.102 280.485C181.109 278.862 180.564 277.284 179.556 276.01C178.571 274.724 177.949 273.197 177.755 271.589C177.315 267.632 179.123 249.677 179.193 248.911C179.213 248.709 179.273 248.512 179.37 248.333C179.466 248.153 179.597 247.995 179.755 247.866C179.913 247.737 180.095 247.641 180.291 247.583C180.486 247.525 180.691 247.506 180.893 247.528C181.3 247.571 181.673 247.773 181.931 248.09C182.189 248.407 182.31 248.814 182.269 249.221C181.759 254.322 180.491 268.227 180.831 271.241C180.969 272.351 181.413 273.4 182.115 274.271C183.442 276.034 184.165 278.178 184.178 280.385C184.294 283.67 180.924 285.154 176.658 287.017C171.943 289.08 165.489 291.909 160.681 298.247C158.471 301.138 155.696 302.622 152.604 302.622Z" fill="#221F1F"/>
<path d="M146.883 32.0205C147.78 26.355 161.623 19.8933 173.163 25.7134C176.254 28.0322 181.85 22.4208 185.143 25.7134C186.302 26.8728 182.824 30.7375 184.37 31.8968C185.916 33.0562 190.747 31.7036 190.94 34.2156C191.133 36.7276 188.428 38.4667 188.815 41.172C189.201 43.8772 195.554 58.0681 177.932 71.4475C170.458 77.113 155.687 147.967 164.266 163.596C168.517 171.325 181.124 180.894 188.034 184.078C200.919 189.999 207.001 180.824 213.641 177.215C220.984 176.249 211.801 189.682 213.734 190.648C215.666 191.614 220.025 187.185 222.236 188.716C225.784 191.158 219.855 201.276 220.76 206.23C222.135 213.828 214.19 247.968 180.691 251.323C147.192 254.677 117.628 231.149 126.973 197.218C130.644 183.885 142.431 168.62 144.364 161.277C149.001 143.5 153.252 101.375 153.252 101.375" fill="white"/>
<path d="M174.477 253.178C157.944 253.178 142.509 246.724 133.141 235.625C124.221 225.059 121.501 211.27 125.481 196.801C127.63 189.025 132.329 180.84 136.48 173.613C139.486 168.365 142.091 163.835 142.872 160.875C147.463 143.438 151.714 101.638 151.714 101.22C151.754 100.811 151.955 100.433 152.274 100.172C152.592 99.9099 153.001 99.7854 153.411 99.8254C153.821 99.8653 154.198 100.067 154.46 100.385C154.721 100.703 154.846 101.112 154.806 101.522C154.636 103.253 150.532 143.986 145.879 161.663C144.99 165.026 142.292 169.725 139.17 175.159C135.119 182.223 130.521 190.223 128.48 197.628C124.778 211.076 127.274 223.868 135.521 233.63C145.43 245.379 162.69 251.562 180.552 249.777C192.764 248.556 202.619 243.083 209.838 233.499C217.521 223.304 220.01 210.698 219.252 206.508C218.804 204.058 219.709 200.827 220.574 197.713C221.393 194.783 222.514 190.756 221.347 189.983C220.907 189.682 219.137 190.563 218.186 191.035C216.424 191.908 214.607 192.82 213.03 192.024C211.067 191.05 211.987 188.662 213.262 185.354C213.927 183.63 215.481 179.587 214.862 178.807C214.862 178.807 214.638 178.683 214.089 178.722C212.668 179.581 211.3 180.526 209.993 181.551C204.714 185.508 198.144 190.432 187.369 185.477C180.351 182.254 167.335 172.407 162.891 164.338C157.101 153.81 161.917 122.785 163.532 113.525C166.74 95.1453 172.313 73.7507 176.973 70.2416C191.829 58.9724 188.761 47.2934 187.601 42.8955C187.461 42.4101 187.347 41.9172 187.261 41.4192C186.983 39.4946 187.825 37.9797 188.505 36.7817C189.006 36.0847 189.305 35.264 189.371 34.4088C188.647 34.1912 187.894 34.0818 187.137 34.0841C185.793 34.0068 184.401 33.9218 183.42 33.1875C181.634 31.8504 182.608 29.5703 183.25 28.0553C183.455 27.5972 183.633 27.1275 183.783 26.6486C182.77 25.8757 181.294 26.3008 179.084 27.0196C176.873 27.7384 174.392 28.5654 172.336 27.0892C165.426 23.6651 157.82 25.0795 153.384 27.352C150.601 28.7741 148.638 30.7296 148.383 32.3219C148.316 32.7247 148.093 33.0848 147.761 33.3234C147.43 33.5621 147.018 33.6599 146.614 33.5956C146.211 33.5313 145.85 33.31 145.609 32.9802C145.368 32.6503 145.268 32.2386 145.33 31.8349C145.755 29.1838 148.174 26.5481 151.977 24.6003C157.326 21.8642 165.89 20.3724 173.835 24.3839L174.067 24.5308C174.84 25.1337 176.456 24.6158 178.133 24.0747C180.653 23.3018 183.783 22.2506 186.21 24.6699C187.501 25.9607 186.72 27.7616 186.094 29.3075C185.863 29.8069 185.672 30.3238 185.522 30.8533C186.117 30.9612 186.719 31.0258 187.323 31.0465C189.155 31.1548 192.239 31.3325 192.455 34.2001C192.474 35.6735 192.04 37.1172 191.211 38.3352C190.577 39.4637 190.198 40.198 190.322 41.0559C190.322 41.2646 190.469 41.7052 190.592 42.1767C191.767 46.6442 195.346 60.2554 178.836 72.7768C176.046 74.8946 170.558 91.327 166.578 114.159C162.45 137.842 162.071 156.539 165.604 162.946C169.677 170.359 182.183 179.788 188.66 182.772C197.765 186.953 203.036 183.004 208.138 179.178C209.638 177.992 211.222 176.915 212.876 175.955C213.045 175.867 213.228 175.809 213.417 175.785C215.171 175.545 216.47 175.955 217.282 176.99C218.982 179.155 217.529 182.919 216.13 186.567C215.821 187.34 215.434 188.368 215.202 189.125C215.712 188.909 216.339 188.592 216.787 188.352C218.727 187.386 221.138 186.181 223.086 187.525C226.031 189.558 224.748 194.165 223.504 198.625C222.731 201.407 221.958 204.29 222.244 206.037C223.071 210.574 220.992 223.861 212.257 235.447C204.613 245.603 193.707 251.678 180.815 252.946C178.702 253.1 176.59 253.178 174.477 253.178Z" fill="#221F1F"/>
<path d="M155.58 44.542C156.268 37.8484 153.477 32.0747 149.342 31.6496C145.207 31.2245 141.296 36.2871 140.608 43.0038C139.92 49.7206 142.71 55.4634 146.846 55.8885C150.981 56.3136 154.915 51.2355 155.58 44.542Z" fill="white"/>
<path d="M147.363 57.3881C147.149 57.3994 146.935 57.3994 146.721 57.3881C141.705 56.878 138.389 50.5013 139.17 42.888C139.445 39.608 140.61 36.4654 142.54 33.7984C144.511 31.24 146.992 29.9338 149.496 30.2275C154.512 30.7453 157.828 37.1143 157.047 44.7276C156.771 48.0074 155.606 51.1499 153.677 53.8172C151.892 56.1282 149.666 57.3881 147.363 57.3881ZM148.909 33.095C147.54 33.095 146.126 33.953 144.897 35.5529C143.299 37.7863 142.34 40.4131 142.122 43.1508C141.527 48.9323 143.784 54.0954 147.053 54.4278C148.522 54.5824 150.068 53.7167 151.39 51.9931C152.99 49.7603 153.952 47.1336 154.172 44.3952C154.767 38.6137 152.51 33.4506 149.241 33.1105L148.909 33.095Z" fill="#221F1F"/>
<path d="M64.6441 76.8196C64.7986 78.3655 61.9852 84.3325 73.1926 87.4783C79.2678 89.1787 87.5227 103.81 89.2154 125.985C91.0627 150.263 113.609 164.439 132.012 155.874C150.416 147.31 151.923 116.115 156.576 97.0626C161.229 78.0099 169.669 66.1455 175.559 59.3128C181.449 52.4802 174.941 45.5857 169.144 47.2552C163.347 48.9247 146.605 56.1825 130.907 59.1814C115.209 62.1804 94.8268 65.3648 80.4427 66.1378C66.0585 66.9107 62.1243 66.3928 62.3021 75.4902C62.3639 78.3887 68.099 75.637 77.32 75.3588C94.3244 74.8332 148.236 91.6521 165.696 59.4365" fill="#EC8023"/>
<path d="M66.2674 76.6646C66.2861 77.0961 66.2628 77.5284 66.1979 77.9554C66.1515 78.2646 66.1206 78.5351 66.0974 78.7979C66.0424 79.2833 66.0424 79.7733 66.0974 80.2587C66.2443 81.1643 66.6651 82.0032 67.3031 82.6625C68.6403 84.0847 70.8045 85.0354 72.9996 85.7078L73.417 85.8315L73.6334 85.8933L73.9194 85.9938C74.2911 86.115 74.6529 86.2649 75.0015 86.4421C75.6477 86.7771 76.2588 87.1758 76.8256 87.6324C77.8784 88.49 78.8324 89.4621 79.67 90.5309C81.2621 92.5764 82.6302 94.7867 83.751 97.1239C85.9293 101.698 87.5885 106.503 88.6977 111.446C89.8149 116.335 90.5642 121.301 90.9392 126.302C91.3447 131.012 92.657 135.6 94.8039 139.813C96.9428 144.002 99.968 147.676 103.669 150.58C107.341 153.477 111.666 155.431 116.268 156.268C120.843 157.088 125.557 156.617 129.879 154.908C134.178 153.194 137.866 150.233 140.468 146.406C143.137 142.452 145.22 138.133 146.652 133.583C149.743 124.401 151.289 114.669 153.129 104.985C154.968 95.2999 157.712 85.4219 162.211 76.3863C164.434 71.8648 167.051 67.548 170.033 63.4862C170.767 62.4659 171.54 61.4766 172.352 60.495C172.746 60.008 173.124 59.5134 173.55 59.0341L174.16 58.3153L174.678 57.6815C175.953 56.012 176.502 54.0488 175.915 52.3329C175.609 51.4535 175.077 50.67 174.373 50.0609C173.669 49.4518 172.817 49.0385 171.903 48.8624C171.456 48.7675 170.998 48.7414 170.543 48.7851C170.052 48.8382 169.569 48.9497 169.105 49.1175C167.985 49.4576 166.825 49.8904 165.681 50.2846C161.044 51.9541 156.406 53.6855 151.714 55.2777C147.023 56.87 142.238 58.3153 137.392 59.5366C134.973 60.124 132.499 60.665 130.065 61.0824C127.63 61.4998 125.195 61.9867 122.761 62.4196C113.014 64.1277 103.229 65.6272 93.3894 66.7402C88.4736 67.2967 83.4882 67.7218 78.5338 67.9305C76.0681 68.0542 73.6025 68.1392 71.2219 68.3479C70.07 68.4338 68.9258 68.6017 67.7978 68.8503C66.8613 69.0132 65.9827 69.4152 65.2472 70.0174C64.6344 70.6659 64.2492 71.496 64.1496 72.3826C64.0562 72.9191 63.9994 73.4615 63.9796 74.0057C63.9796 74.2917 63.9796 74.5777 63.9796 74.8637C63.9796 75.1497 63.9796 75.5825 63.9796 75.4743C63.9361 75.3392 63.8492 75.2223 63.7322 75.1419C63.6395 75.1033 63.7322 75.1419 63.9332 75.1419C64.4336 75.1711 64.9357 75.153 65.4327 75.0878C66.5766 74.9564 67.7978 74.7477 69.0268 74.5622C71.5206 74.1704 74.0336 73.9124 76.5551 73.7893C79.0979 73.7214 81.6423 73.8376 84.1684 74.1371C89.1306 74.6704 94 75.4047 98.854 76.0153C103.708 76.6259 108.608 77.1902 113.485 77.5071C123.217 78.1409 133.087 77.9863 142.416 75.5207C147.074 74.3385 151.493 72.3618 155.479 69.6773C159.431 66.8967 162.756 63.3184 165.241 59.1733L166.176 59.6757C163.97 64.2492 160.721 68.2414 156.692 71.3314C154.674 72.8804 152.507 74.2242 150.223 75.3429C147.937 76.4362 145.567 77.3435 143.135 78.0559C138.285 79.4255 133.297 80.2499 128.264 80.5138C123.279 80.7895 118.282 80.7637 113.3 80.4365C108.33 80.1428 103.391 79.6172 98.483 79.0143C93.5749 78.4114 88.6746 77.7235 83.7974 77.2366C81.4221 76.9631 79.0298 76.8649 76.6401 76.9428C74.2342 77.068 71.837 77.3261 69.4596 77.7158C68.2538 77.9013 67.0404 78.1177 65.7341 78.2723C65.0094 78.372 64.2763 78.3953 63.5467 78.3419C63.0023 78.2988 62.4742 78.1351 62.0009 77.8626C61.6675 77.6689 61.38 77.4052 61.1584 77.0897C60.9559 76.7828 60.8166 76.4385 60.7487 76.0772C60.6955 75.6672 60.6723 75.2539 60.6792 74.8405C60.6792 74.5159 60.6792 74.1835 60.6792 73.8511C60.7008 73.1618 60.7706 72.4748 60.8879 71.7952C61.0061 71.0531 61.2165 70.3287 61.5139 69.6387C61.8533 68.8785 62.3362 68.1909 62.9361 67.6136C64.0808 66.602 65.4728 65.9114 66.9708 65.6118C68.2439 65.3239 69.5351 65.1224 70.8354 65.0089C73.3629 64.777 75.8285 64.6688 78.2864 64.5374C83.1945 64.2901 88.0485 63.8727 92.9334 63.3162C102.688 62.2109 112.419 60.7191 122.104 59.011C124.523 58.5781 126.95 58.1453 129.361 57.6815C131.773 57.2178 134.123 56.7231 136.495 56.1357C141.218 54.9531 145.894 53.5155 150.54 51.9541C155.185 50.3928 159.815 48.6615 164.452 46.9688C165.627 46.5514 166.771 46.134 168.031 45.7553C168.728 45.5111 169.452 45.3528 170.187 45.2838C170.962 45.2093 171.744 45.251 172.506 45.4075C174.027 45.6986 175.444 46.3878 176.611 47.4048C177.779 48.4217 178.656 49.7302 179.153 51.1967C179.648 52.6954 179.705 54.3045 179.316 55.8342C178.943 57.26 178.286 58.5956 177.383 59.7607L176.734 60.5336L176.147 61.2293C175.752 61.6853 175.374 62.1568 174.995 62.6283C174.222 63.5712 173.495 64.5219 172.792 65.5035C169.928 69.3964 167.414 73.5347 165.279 77.8704C163.133 82.2129 161.34 86.7206 159.915 91.3502C159.196 93.669 158.57 95.9877 157.991 98.3684C157.411 100.749 156.955 103.137 156.491 105.541C154.628 115.187 153.083 125.042 149.883 134.611C148.342 139.485 146.101 144.11 143.228 148.338C141.722 150.485 139.936 152.422 137.918 154.096C135.872 155.782 133.567 157.126 131.093 158.077C126.181 160.009 120.831 160.544 115.634 159.623C110.48 158.681 105.634 156.491 101.521 153.246C97.4252 150.04 94.0802 145.978 91.7199 141.343C89.3937 136.734 87.9816 131.718 87.5615 126.572C87.2168 121.729 86.5089 116.918 85.4437 112.181C84.4093 107.483 82.8539 102.915 80.8062 98.5616C79.7992 96.4422 78.5684 94.4367 77.1348 92.5792C76.4523 91.7 75.6746 90.899 74.816 90.1908C74.4231 89.8737 74.0013 89.5943 73.5561 89.356C73.3397 89.2633 73.131 89.1551 72.93 89.0932L72.7755 89.0391L72.5513 88.9696L72.0876 88.8305C70.8109 88.4487 69.5696 87.9574 68.3775 87.3619C67.096 86.7342 65.9344 85.8866 64.9457 84.8576C63.8663 83.717 63.1599 82.2746 62.9207 80.7225C62.8107 79.9855 62.7925 79.2378 62.8665 78.4964C62.8665 78.1409 62.9361 77.8085 62.9748 77.5071C63.0134 77.2056 63.0443 76.881 63.0443 76.9506L66.2674 76.6646Z" fill="#221F1F"/>
<path d="M170.087 43.6224C170.775 36.9288 167.822 31.1396 163.486 30.6913C159.15 30.243 155.085 35.3289 154.397 42.007C153.709 48.685 156.661 54.482 160.997 54.9303C165.334 55.3786 169.399 50.3159 170.087 43.6224Z" fill="white"/>
<path d="M161.538 56.4294C161.306 56.4294 161.074 56.4294 160.842 56.4294C155.625 55.8961 152.147 49.4731 152.935 41.8906C153.21 38.5852 154.422 35.4268 156.429 32.7856C158.469 30.2504 161.066 29.006 163.64 29.2688C168.857 29.8098 172.328 36.2251 171.547 43.8075C171.269 47.1122 170.057 50.2697 168.054 52.9126C166.191 55.185 163.903 56.4294 161.538 56.4294ZM162.96 32.1286C161.491 32.1286 160 32.9943 158.717 34.5865C157.069 36.7885 156.077 39.4118 155.857 42.1534C155.262 47.9349 157.681 53.1135 161.144 53.4691C162.728 53.6314 164.367 52.7657 165.781 51.0344C167.431 48.8332 168.422 46.2094 168.641 43.4674C169.236 37.6937 166.817 32.5073 163.354 32.1518L162.96 32.1286Z" fill="#221F1F"/>
<path d="M166.4 47.6493C166.648 43.7847 165.233 40.5848 163.231 40.4534C161.229 40.322 159.367 43.3286 159.15 47.1701C158.934 51.0115 160.317 54.2346 162.319 54.3583C164.321 54.482 166.168 51.4908 166.4 47.6493Z" fill="#221F1F"/>
<path d="M152.287 48.5071C152.542 44.6424 151.127 41.4502 149.125 41.3188C147.123 41.1874 145.261 44.1941 145.044 48.0356C144.828 51.877 146.211 55.0924 148.206 55.2238C150.2 55.3552 152.039 52.3253 152.287 48.5071Z" fill="#221F1F"/>
<path d="M138.467 27.1125C138.502 25.6998 138.864 24.3144 139.524 23.0647C140.184 21.815 141.123 20.7349 142.27 19.9089C143.488 19.0482 144.954 18.6115 146.445 18.6659C147.935 18.7204 149.366 19.263 150.517 20.2103C150.612 20.285 150.682 20.3877 150.716 20.5039C150.75 20.6201 150.746 20.744 150.706 20.8582C150.666 20.9724 150.591 21.0713 150.492 21.1408C150.393 21.2104 150.275 21.2472 150.154 21.246H150.069C148.949 21.1313 147.819 21.1599 146.707 21.331C145.743 21.5089 144.828 21.891 144.025 22.4518C142.386 23.6189 140.933 25.443 139.348 27.3753C139.286 27.4523 139.2 27.5078 139.104 27.5341C139.009 27.5605 138.907 27.5564 138.814 27.5224C138.72 27.4885 138.64 27.4263 138.583 27.3446C138.527 27.2628 138.497 27.1655 138.498 27.0662L138.467 27.1125Z" fill="#231F20"/>
<path d="M166.4 18.4249C164.019 17.6056 161.862 16.7708 159.861 16.6162C158.883 16.5449 157.902 16.6873 156.985 17.0336C155.933 17.4563 154.94 18.015 154.033 18.6954L153.963 18.7418C153.835 18.8152 153.684 18.8368 153.54 18.8023C153.396 18.7679 153.271 18.6798 153.19 18.5563C153.142 18.48 153.112 18.3931 153.104 18.303C153.096 18.2129 153.109 18.1221 153.144 18.0384C153.642 16.6326 154.59 15.4301 155.84 14.617C157.091 13.8039 158.574 13.4253 160.062 13.54C161.491 13.6498 162.871 14.1089 164.081 14.8771C165.261 15.5852 166.255 16.5659 166.979 17.737C167.012 17.791 167.034 17.8511 167.044 17.9137C167.053 17.9764 167.05 18.0402 167.034 18.1016C167.018 18.1629 166.99 18.2204 166.951 18.2706C166.913 18.3208 166.864 18.3628 166.809 18.3939C166.751 18.4314 166.686 18.4551 166.617 18.4631C166.549 18.4712 166.48 18.4634 166.415 18.4403L166.4 18.4249Z" fill="#231F20"/>
<path d="M200.633 240.749C208.123 240.749 207.188 262.453 205.518 277.85C204.931 282.317 216.038 289.699 219.81 292.736C223.581 295.774 224.501 300.837 216.842 300.806C212.42 301.014 212.621 299.662 209.112 299.7C205.603 299.739 203.524 303.936 198.956 303.89C194.388 303.843 194.087 300.025 190.454 299.801C186.821 299.577 181.279 301.269 176.966 300.937C172.653 300.605 170.056 296.98 174.222 294.228C178.388 291.476 196.073 285.726 196.931 278.406C197.789 271.087 193.136 240.749 200.633 240.749Z" fill="#EE8022"/>
<path d="M199.056 305.428H198.963C195.925 305.428 194.364 303.982 193.104 302.846C192.099 301.934 191.473 301.408 190.376 301.347C188.447 301.341 186.521 301.517 184.625 301.872C182.078 302.356 179.487 302.56 176.896 302.483C173.804 302.243 171.331 300.574 170.712 298.317C170.473 297.389 170.249 295.009 173.387 292.906C175.189 291.846 177.058 290.904 178.983 290.085C184.926 287.341 194.874 282.742 195.407 278.19C195.639 276.211 195.407 272.23 195.183 267.624C194.48 254.484 194.209 244.088 197.602 240.517C197.985 240.096 198.452 239.76 198.972 239.53C199.493 239.3 200.056 239.18 200.625 239.18C201.372 239.185 202.11 239.351 202.788 239.667C203.466 239.983 204.067 240.442 204.551 241.012C208.416 245.302 209.243 257.746 207.048 277.989C206.669 280.849 214.839 286.993 218.325 289.621C219.283 290.348 220.133 290.982 220.767 291.5C223.503 293.702 224.748 296.601 223.936 298.889C223.38 300.435 221.71 302.313 216.902 302.313C215.221 302.465 213.527 302.246 211.94 301.671C211.057 301.336 210.117 301.181 209.173 301.215C208.029 301.215 206.955 301.988 205.703 302.831C204.018 303.998 201.954 305.428 199.056 305.428ZM189.78 298.224C190.059 298.224 190.316 298.224 190.553 298.224C192.333 298.397 193.985 299.223 195.191 300.543C196.281 301.532 197.139 302.313 199.001 302.328H199.063C200.996 302.328 202.418 301.347 203.933 300.311C205.448 299.275 207.024 298.17 209.127 298.147C210.412 298.11 211.693 298.319 212.899 298.765C214.135 299.213 215.455 299.379 216.763 299.252H216.902C219.183 299.252 220.721 298.742 221.022 297.884C221.324 297.026 220.643 295.403 218.827 293.934C218.209 293.44 217.389 292.821 216.462 292.126C209.56 286.924 203.415 281.908 203.979 277.649C205.981 259.168 205.355 246.562 202.255 243.107C202.058 242.865 201.809 242.671 201.527 242.537C201.245 242.403 200.937 242.334 200.625 242.334C200.476 242.335 200.33 242.368 200.197 242.433C200.063 242.497 199.945 242.59 199.852 242.705C197.108 245.603 197.811 258.789 198.306 267.516C198.553 272.269 198.777 276.373 198.515 278.615C197.78 284.891 187.694 289.552 180.312 292.953C178.532 293.715 176.798 294.58 175.118 295.542C174.631 295.867 173.518 296.717 173.742 297.567C173.966 298.417 175.203 299.283 177.128 299.43C179.496 299.481 181.864 299.287 184.192 298.85C186.03 298.51 187.89 298.3 189.757 298.224H189.78Z" fill="#221F1F"/>
<path d="M196.375 241.46C210.891 241.916 219.393 236.367 225.143 233.321C230.894 230.276 230.43 226.203 223.945 225.677L207.837 224.177" fill="white"/>
<path d="M196.39 240.804C198.848 240.533 201.26 240.293 203.64 239.868C206.005 239.454 208.343 238.902 210.643 238.214C212.938 237.517 215.184 236.67 217.368 235.679C219.57 234.682 221.696 233.507 223.922 232.355C224.509 232.062 224.965 231.799 225.468 231.521L226.14 231.065L226.751 230.57C227.524 229.898 227.949 229.063 227.825 228.653C227.825 228.189 226.96 227.563 225.963 227.254C224.844 226.95 223.701 226.748 222.546 226.651C220.088 226.342 217.63 226.033 215.172 225.685C212.715 225.337 210.257 225.02 207.806 224.634C207.686 224.615 207.578 224.549 207.505 224.451C207.433 224.352 207.402 224.229 207.42 224.108C207.439 223.998 207.497 223.898 207.583 223.827C207.67 223.756 207.779 223.718 207.891 223.722C210.365 223.791 212.846 223.923 215.319 224.047C217.793 224.17 220.266 224.302 222.739 224.456C224.059 224.48 225.373 224.643 226.658 224.943C227.391 225.127 228.086 225.436 228.714 225.855C229.072 226.095 229.397 226.381 229.68 226.705C229.979 227.087 230.202 227.523 230.337 227.988C230.583 228.903 230.469 229.876 230.02 230.709C229.845 231.073 229.632 231.417 229.387 231.737C229.139 232.023 228.892 232.309 228.614 232.572L227.841 233.275L226.991 233.878C226.426 234.234 225.808 234.597 225.298 234.875C221.047 237.302 216.463 239.783 211.509 241.136C209.044 241.818 206.516 242.253 203.965 242.434C201.431 242.592 198.887 242.486 196.375 242.118C196.214 242.1 196.065 242.024 195.957 241.903C195.849 241.783 195.789 241.626 195.789 241.464C195.789 241.302 195.849 241.146 195.957 241.026C196.065 240.905 196.214 240.829 196.375 240.811L196.39 240.804Z" fill="#221F1F"/>
<path d="M200.014 231.613C213.664 233.414 225.776 224 229.509 220.599C233.243 217.198 229.71 214.841 226.201 214.64L200.517 213.194" fill="white"/>
<path d="M200.107 230.917C205.59 231.084 211.037 229.97 216.014 227.663C218.521 226.551 220.931 225.229 223.218 223.714C224.369 222.941 225.498 222.168 226.588 221.325C227.639 220.574 228.61 219.717 229.486 218.767C229.75 218.458 229.898 218.067 229.903 217.662C229.863 217.467 229.784 217.283 229.671 217.12C229.558 216.957 229.414 216.818 229.246 216.711C228.778 216.369 228.255 216.108 227.701 215.938C227.097 215.761 226.474 215.655 225.846 215.621L217.413 215.041C211.778 214.616 206.136 214.191 200.509 213.712C200.383 213.691 200.27 213.625 200.19 213.526C200.11 213.426 200.069 213.301 200.076 213.174C200.083 213.046 200.136 212.926 200.226 212.836C200.316 212.745 200.436 212.691 200.563 212.684C206.213 212.846 211.863 213.047 217.513 213.256L226.016 213.573C227.657 213.557 229.267 214.016 230.653 214.895C231.081 215.17 231.448 215.53 231.733 215.951C232.019 216.371 232.217 216.846 232.315 217.345C232.427 218.359 232.151 219.378 231.542 220.197L231.156 220.722C231.024 220.885 230.877 221.024 230.738 221.178C230.445 221.495 230.182 221.727 229.911 221.951C229.37 222.446 228.821 222.917 228.265 223.381C227.152 224.316 225.946 225.159 224.779 225.986C222.377 227.629 219.816 229.027 217.135 230.16C211.778 232.401 205.703 233.422 199.976 232.247C199.801 232.225 199.641 232.135 199.532 231.996C199.424 231.857 199.375 231.68 199.396 231.505C199.418 231.329 199.508 231.17 199.647 231.061C199.786 230.952 199.963 230.903 200.138 230.925L200.107 230.917Z" fill="#221F1F"/>
<path d="M201.275 221.109C217.677 221.48 226.31 214.021 228.173 211.78C230.036 209.538 231.644 204.051 224.695 205.596C217.746 207.142 202.11 207.088 193.832 201.778C185.33 196.368 183.683 174.656 175.282 172.16C167.073 169.709 159.128 180.422 159.128 180.422L154.83 187.788C154.83 187.788 140.601 214.439 157.419 232.471C175.614 251.972 206.423 248.061 211.973 246.206C217.383 244.39 218.751 240.695 214.291 239.18C214.291 239.18 196.645 244.853 192.394 240.726" fill="white"/>
<path d="M196.375 241.46C210.891 241.916 219.393 236.367 225.143 233.321C230.894 230.276 230.43 226.203 223.945 225.677L207.837 224.177" fill="white"/>
<path d="M196.39 240.803C198.828 240.717 201.261 240.505 203.678 240.169C208.474 239.469 213.145 238.09 217.552 236.073C219.771 235.068 221.912 233.893 224.122 232.726C224.694 232.424 225.173 232.146 225.668 231.86L226.364 231.381L227.005 230.855C227.778 230.137 228.327 229.194 228.149 228.537C228.107 228.359 228.031 228.191 227.925 228.042C227.785 227.87 227.621 227.719 227.438 227.594C227.014 227.291 226.541 227.063 226.039 226.921C224.898 226.619 223.731 226.425 222.553 226.342C217.63 225.816 212.706 225.221 207.79 224.61C207.668 224.595 207.557 224.532 207.482 224.434C207.407 224.337 207.373 224.214 207.388 224.092C207.404 223.977 207.463 223.872 207.553 223.798C207.644 223.725 207.759 223.689 207.875 223.698C212.814 224 217.761 224.324 222.7 224.711C224.002 224.757 225.296 224.93 226.565 225.229C227.26 225.413 227.921 225.711 228.52 226.11C228.849 226.325 229.145 226.585 229.401 226.883C229.674 227.225 229.874 227.62 229.989 228.042C230.211 228.871 230.106 229.754 229.695 230.508C229.523 230.845 229.321 231.165 229.092 231.466C228.852 231.737 228.613 231.999 228.366 232.239C228.118 232.479 227.848 232.695 227.593 232.911L226.766 233.499C226.209 233.839 225.614 234.187 225.096 234.465C220.814 236.869 216.292 239.327 211.384 240.687C208.945 241.376 206.449 241.844 203.926 242.086C201.411 242.303 198.881 242.303 196.366 242.086C196.194 242.07 196.035 241.988 195.922 241.857C195.81 241.725 195.753 241.555 195.763 241.383C195.775 241.223 195.845 241.072 195.961 240.961C196.076 240.85 196.229 240.785 196.39 240.78V240.803Z" fill="#221F1F"/>
<path d="M200.014 231.613C213.664 233.414 225.776 224 229.509 220.599C233.243 217.198 229.71 214.841 226.201 214.64L200.517 213.194" fill="white"/>
<path d="M200.107 230.918C202.849 231.156 205.611 231.019 208.315 230.508C211.02 229.984 213.653 229.143 216.161 228.004C218.684 226.871 221.1 225.513 223.38 223.946C224.516 223.173 225.629 222.338 226.703 221.472C227.748 220.696 228.705 219.807 229.555 218.821C230.174 217.871 230.127 217.376 229.262 216.688C228.79 216.365 228.267 216.122 227.716 215.969C227.112 215.794 226.489 215.692 225.861 215.668L217.413 215.104C211.778 214.678 206.144 214.246 200.517 213.712C200.449 213.706 200.382 213.687 200.322 213.656C200.261 213.624 200.207 213.581 200.163 213.528C200.12 213.476 200.087 213.415 200.066 213.35C200.046 213.285 200.039 213.216 200.045 213.148C200.057 213.018 200.118 212.898 200.216 212.812C200.313 212.725 200.44 212.68 200.571 212.684C206.229 212.785 211.871 212.986 217.521 213.194L226.023 213.558C227.632 213.57 229.203 214.042 230.553 214.918C230.971 215.195 231.329 215.554 231.607 215.972C231.884 216.39 232.075 216.86 232.168 217.353C232.282 218.348 232.005 219.348 231.395 220.143L231.009 220.653C230.869 220.815 230.723 220.947 230.583 221.094C230.321 221.368 230.042 221.626 229.749 221.867C229.197 222.346 228.641 222.81 228.079 223.258C226.951 224.162 225.76 224.974 224.555 225.778C222.14 227.368 219.584 228.731 216.918 229.851C211.593 232.038 205.664 233.175 199.914 232.27C199.738 232.249 199.579 232.158 199.47 232.019C199.362 231.88 199.313 231.703 199.334 231.528C199.356 231.353 199.446 231.193 199.585 231.085C199.724 230.976 199.901 230.927 200.076 230.949L200.107 230.918Z" fill="#221F1F"/>
<path d="M195.91 210.311C195.91 210.311 196.041 221.132 199.257 221.132C202.472 221.132 220.126 221.387 226.44 213.658C232.755 205.929 225.536 208.765 225.536 208.765" fill="white"/>
<path d="M150.547 203.695C150.918 205.851 150.663 207.861 150.694 209.878C150.709 211.906 150.856 213.93 151.134 215.938C151.414 217.928 151.901 219.884 152.587 221.774C153.296 223.644 154.2 225.434 155.285 227.114C155.826 227.949 156.382 228.776 157.001 229.557C157.603 230.372 158.259 231.147 158.964 231.876L160.031 232.958C160.394 233.321 160.804 233.646 161.159 233.993C161.893 234.689 162.705 235.307 163.478 235.949C166.742 238.437 170.324 240.478 174.129 242.016C181.82 245.063 190.025 246.603 198.298 246.554C200.37 246.554 202.441 246.484 204.482 246.306C206.528 246.15 208.562 245.866 210.572 245.456C212.442 245.136 214.17 244.255 215.527 242.929C215.8 242.677 216.001 242.355 216.107 241.999C216.213 241.643 216.221 241.264 216.13 240.903C215.726 240.159 215.046 239.604 214.236 239.358C214.071 239.291 213.94 239.161 213.87 238.997C213.801 238.834 213.799 238.649 213.865 238.484C213.929 238.331 214.046 238.206 214.196 238.133C214.345 238.061 214.516 238.045 214.677 238.09C215.252 238.25 215.801 238.492 216.307 238.809C216.873 239.172 217.332 239.679 217.637 240.277C217.946 240.93 218.022 241.67 217.853 242.372C217.698 243.009 217.411 243.607 217.011 244.127C216.265 245.06 215.333 245.829 214.275 246.383C213.27 246.922 212.203 247.335 211.098 247.612C208.998 248.124 206.865 248.483 204.714 248.687C202.58 248.903 200.439 249.019 198.298 249.05C189.673 249.267 181.09 247.783 173.039 244.683C171.022 243.883 169.062 242.946 167.172 241.877C165.288 240.814 163.48 239.621 161.762 238.306C160.912 237.626 160.046 236.969 159.242 236.227C158.84 235.856 158.423 235.516 158.036 235.13L156.877 233.97C155.291 232.426 153.893 230.701 152.711 228.83C151.547 226.941 150.6 224.927 149.89 222.825C149.169 220.744 148.652 218.598 148.344 216.417C148.182 215.335 148.081 214.237 148.027 213.148C147.965 212.059 147.965 210.967 148.027 209.878C148.158 207.714 148.305 205.519 149.341 203.517C149.382 203.436 149.438 203.364 149.507 203.305C149.577 203.247 149.657 203.202 149.743 203.175C149.829 203.148 149.92 203.138 150.011 203.146C150.101 203.154 150.189 203.181 150.269 203.223C150.362 203.272 150.443 203.341 150.505 203.426C150.568 203.51 150.612 203.607 150.632 203.71L150.547 203.695Z" fill="#221F1F"/>
<path d="M201.29 220.46C206.36 220.339 211.38 219.426 216.169 217.755C218.513 216.908 220.758 215.807 222.862 214.47C223.896 213.811 224.88 213.077 225.807 212.275C226.248 211.89 226.664 211.477 227.051 211.038C227.733 210.239 228.192 209.273 228.381 208.24C228.46 207.884 228.43 207.512 228.296 207.173C228.195 207.003 228.064 206.88 227.662 206.779C227.183 206.684 226.692 206.668 226.209 206.733C225.637 206.795 225.15 206.911 224.431 207.057C223.712 207.204 223.102 207.305 222.437 207.397C221.108 207.583 219.786 207.714 218.456 207.784C213.156 208.103 207.836 207.724 202.635 206.655C199.976 206.115 197.395 205.245 194.952 204.066C194.333 203.757 193.73 203.417 193.135 203.046C192.505 202.646 191.917 202.182 191.381 201.662C190.377 200.658 189.505 199.531 188.784 198.308C187.456 195.985 186.331 193.551 185.422 191.035C184.486 188.592 183.636 186.157 182.67 183.815C181.812 181.516 180.645 179.345 179.199 177.362C178.527 176.483 177.69 175.745 176.734 175.19C176.284 174.936 175.799 174.749 175.296 174.633C175.041 174.579 174.794 174.533 174.523 174.502L173.634 174.463C172.458 174.445 171.283 174.541 170.125 174.749C169.553 174.855 168.987 174.997 168.433 175.174L167.606 175.445L166.786 175.769C166.258 176 165.742 176.258 165.24 176.542C164.723 176.828 164.212 177.137 163.695 177.477C162.674 178.134 161.886 179.023 160.603 179.603C160.515 179.643 160.42 179.665 160.324 179.668C160.228 179.671 160.132 179.654 160.042 179.62C159.952 179.585 159.87 179.533 159.8 179.467C159.731 179.4 159.675 179.32 159.637 179.232C159.581 179.069 159.581 178.892 159.637 178.73C160.054 177.323 161.113 176.411 162.11 175.445C162.627 174.975 163.169 174.534 163.733 174.123C164.322 173.729 164.934 173.37 165.565 173.049L166.531 172.6L167.528 172.214C168.208 172.002 168.9 171.829 169.6 171.696C170.989 171.45 172.405 171.379 173.812 171.487L174.856 171.58C175.241 171.618 175.623 171.683 176 171.773C176.759 171.948 177.49 172.229 178.171 172.608C179.466 173.35 180.6 174.34 181.51 175.522C183.118 177.721 184.418 180.129 185.375 182.679C186.38 185.122 187.238 187.572 188.15 189.96C188.997 192.315 190.045 194.593 191.28 196.77C191.871 197.781 192.588 198.714 193.414 199.545C193.806 199.93 194.239 200.272 194.704 200.565C195.207 200.874 195.732 201.168 196.25 201.438C198.464 202.506 200.8 203.301 203.207 203.803C208.156 204.824 213.217 205.198 218.263 204.916C219.523 204.847 220.783 204.746 222.02 204.584C222.638 204.507 223.249 204.406 223.851 204.29C224.525 204.141 225.206 204.027 225.892 203.95C226.695 203.854 227.508 203.898 228.296 204.082C228.775 204.197 229.229 204.402 229.633 204.685C230.079 204.998 230.44 205.418 230.684 205.906C231.083 206.757 231.199 207.713 231.016 208.634C230.879 209.401 230.634 210.145 230.29 210.845C229.953 211.532 229.53 212.174 229.03 212.754C228.55 213.284 228.034 213.78 227.484 214.238C226.448 215.12 225.347 215.923 224.191 216.642C221.901 218.05 219.448 219.176 216.887 219.996C211.819 221.586 206.49 222.176 201.197 221.735C201.036 221.718 200.887 221.641 200.779 221.521C200.671 221.4 200.611 221.244 200.611 221.082C200.611 220.92 200.671 220.764 200.779 220.643C200.887 220.523 201.036 220.447 201.197 220.429L201.29 220.46Z" fill="#221F1F"/>
<path d="M171.811 57.1871L154.15 114.306C154.15 114.306 150.957 126.743 126.564 131.148C111.878 133.792 100.184 133.9 93.7918 134.542C92.2887 134.694 90.7799 134.313 89.5294 133.465C88.2789 132.617 87.3663 131.357 86.9514 129.904L77.7227 97.3484C77.2276 95.9084 76.4503 94.5816 75.4364 93.4456C74.4224 92.3096 73.1922 91.3871 71.8175 90.7321C67.0254 88.4134 59.8449 83.4125 59.9531 73.6891C59.9737 71.5565 60.7538 69.501 62.1534 67.8917C63.553 66.2824 65.4804 65.2248 67.5896 64.9087C91.6972 61.3068 171.811 57.1871 171.811 57.1871Z" fill="#96D3BC"/>
<path d="M170.041 58.8104C169.734 58.8237 169.434 58.7143 169.207 58.5063C168.98 58.2983 168.845 58.0087 168.832 57.7012C168.818 57.3937 168.928 57.0935 169.136 56.8667C169.344 56.6398 169.633 56.5049 169.941 56.4916C170.366 56.4916 171.038 56.4375 171.958 56.4066C176.341 56.2674 187.989 55.9119 191.359 52.3564C191.573 52.1433 191.862 52.0223 192.164 52.0191C192.466 52.0159 192.758 52.1309 192.976 52.3395C193.195 52.5481 193.324 52.8339 193.335 53.1359C193.346 53.4379 193.239 53.7323 193.036 53.9564C189.017 58.1998 177.577 58.5553 172.035 58.7253C171.177 58.7253 170.49 58.7717 170.134 58.8026L170.041 58.8104Z" fill="#3D8E6F"/>
<path d="M154.118 114.763C153.836 114.772 153.56 114.675 153.345 114.492C153.227 114.396 153.128 114.278 153.056 114.144C152.983 114.009 152.938 113.862 152.923 113.711C152.908 113.559 152.923 113.406 152.968 113.26C153.012 113.114 153.085 112.979 153.183 112.861C163.03 100.904 173.132 87.2541 173.665 84.2629C173.364 84.0001 174.021 82.1296 174.655 82.2533C174.936 82.3045 175.199 82.4295 175.416 82.6156C175.633 82.8016 175.797 83.042 175.891 83.3122C176.216 84.232 176.834 85.9479 165.805 100.572C160.526 107.567 155.03 114.245 154.984 114.314C154.88 114.447 154.749 114.556 154.6 114.633C154.45 114.711 154.286 114.755 154.118 114.763Z" fill="#3D8E6F"/>
<path d="M169.383 58.9335L152.727 113.541C151.861 115.674 146.543 126.356 125.79 130.105C116.291 131.8 106.656 132.618 97.0064 132.547H92.3688C91.3717 132.547 90.6529 132.547 90.05 132.547L79.886 96.6755C79.8767 96.6358 79.8637 96.597 79.8474 96.5596C79.2455 94.8304 78.3082 93.2371 77.0893 91.871C75.8704 90.5049 74.3938 89.3927 72.7442 88.5984C67.8902 86.2796 62.1165 81.8198 62.2015 73.6732C62.2107 72.0911 62.7865 70.5648 63.8245 69.3708C64.8624 68.1768 66.2939 67.3943 67.8593 67.1652C88.937 64.0271 153.724 59.8842 169.321 58.9103L169.383 58.9335ZM170.388 56.522H170.287C157.148 57.2949 89.2616 61.631 67.4883 64.8618C65.3791 65.178 63.4517 66.2356 62.0521 67.8449C60.6525 69.4542 59.8724 71.5096 59.8518 73.6423C59.7436 83.3657 66.9241 88.4052 71.7162 90.6853C73.0909 91.3403 74.3211 92.2628 75.335 93.3988C76.349 94.5348 77.1262 95.8616 77.6214 97.3016L87.9554 133.76C88.0452 134.087 88.2398 134.375 88.5093 134.581C88.7788 134.786 89.1083 134.897 89.4471 134.897H89.5708C90.2432 134.843 91.163 134.827 92.307 134.827H96.9445C106.753 134.909 116.548 134.091 126.208 132.385C149.534 128.172 154.528 115.272 154.899 114.376C154.901 114.334 154.901 114.293 154.899 114.252L171.903 58.5548C171.976 58.3231 171.993 58.0775 171.953 57.8379C171.913 57.5984 171.818 57.3715 171.674 57.1758C171.53 56.9801 171.342 56.821 171.126 56.7114C170.909 56.6019 170.669 56.5449 170.427 56.5452L170.388 56.522Z" fill="#3D8E6F"/>
<path d="M77.1349 86.3337C70.8742 86.3337 66.654 86.241 66.0356 86.2255C65.8834 86.2215 65.7334 86.1875 65.5942 86.1255C65.4551 86.0635 65.3296 85.9747 65.2248 85.8642C65.12 85.7536 65.038 85.6235 64.9835 85.4813C64.929 85.339 64.903 85.1875 64.9072 85.0352C64.9091 84.883 64.9415 84.7327 65.0023 84.5931C65.0631 84.4535 65.1511 84.3275 65.2613 84.2224C65.3714 84.1173 65.5014 84.0352 65.6437 83.981C65.7859 83.9268 65.9376 83.9016 66.0897 83.9067C66.6694 83.9067 124.43 85.2284 142.895 77.6151C143.038 77.5471 143.192 77.5089 143.35 77.5027C143.507 77.4965 143.664 77.5226 143.812 77.5792C143.959 77.6358 144.093 77.7218 144.206 77.832C144.318 77.9422 144.407 78.0742 144.467 78.22C144.527 78.3658 144.557 78.5223 144.554 78.6799C144.552 78.8375 144.517 78.993 144.453 79.1367C144.388 79.2805 144.295 79.4096 144.178 79.5161C144.062 79.6226 143.925 79.7043 143.777 79.7561C129.748 85.5453 95.0899 86.3337 77.1349 86.3337Z" fill="#3D8E6F"/>
<path d="M81.4245 106.546C81.117 106.546 80.8221 106.424 80.6047 106.206C80.3873 105.989 80.2651 105.694 80.2651 105.386C80.2651 105.079 80.3873 104.784 80.6047 104.567C80.8221 104.349 81.117 104.227 81.4245 104.227C81.9269 104.227 131.533 103.222 140.6 97.3248C140.858 97.1567 141.173 97.0981 141.474 97.1619C141.776 97.2257 142.039 97.4066 142.207 97.6649C142.376 97.9232 142.434 98.2377 142.37 98.5392C142.307 98.8407 142.126 99.1045 141.867 99.2726C132.244 105.526 83.5346 106.507 81.4709 106.546H81.4245Z" fill="#3D8E6F"/>
<path d="M86.2087 122.144C85.9012 122.144 85.6063 122.022 85.3889 121.804C85.1715 121.587 85.0493 121.292 85.0493 120.985C85.0493 120.677 85.1715 120.382 85.3889 120.165C85.6063 119.947 85.9012 119.825 86.2087 119.825C86.5952 119.825 124.994 119.524 136.449 113.804C136.585 113.736 136.733 113.694 136.885 113.683C137.037 113.672 137.189 113.691 137.334 113.738C137.479 113.786 137.613 113.862 137.728 113.961C137.843 114.061 137.938 114.182 138.006 114.318C138.075 114.454 138.116 114.602 138.127 114.754C138.138 114.906 138.12 115.059 138.072 115.203C138.024 115.348 137.948 115.482 137.849 115.597C137.75 115.712 137.628 115.807 137.492 115.875C125.566 121.835 87.8319 122.136 86.2319 122.144H86.2087Z" fill="#3D8E6F"/>
<defs>
<linearGradient id="paint0_linear" x1="138.179" y1="18" x2="138.179" y2="281" gradientUnits="userSpaceOnUse">
<stop stop-color="#FF4444"/>
<stop offset="1" stop-color="#FF4444" stop-opacity="0"/>
</linearGradient>
</defs>
</svg>
